<svg width="188" height="148" viewBox="0 0 188 148" fill="none" xmlns="http://www.w3.org/2000/svg">
<g filter="url(#filter0_i_20_87)">
<path d="M101.869 51.4355C104.255 57.7261 92.2429 77.043 65.6181 85.3068C44.2061 93.4284 26.7155 87.137 24.3294 80.8465C21.9434 74.5559 37.3671 62.8726 58.7792 54.751C80.1912 46.6294 99.4834 45.145 101.869 51.4355Z" fill="#FFDB95"/>
</g>
<g filter="url(#filter1_ii_20_87)">
<path d="M38.157 63.5254L28.6289 75.1015C27.4778 76.5001 27.6783 78.567 29.0769 79.7181C30.4754 80.8692 32.5423 80.6686 33.6934 79.2701L43.2216 67.694C44.3727 66.2954 44.1721 64.2285 42.7736 63.0774C41.375 61.9263 39.3081 62.1269 38.157 63.5254Z" fill="white"/>
<path d="M33.5115 62.2258L23.9834 73.8019C22.8323 75.2005 23.0328 77.2674 24.4314 78.4185C25.8299 79.5696 27.8968 79.369 29.0479 77.9705L38.576 66.3944C39.7272 64.9958 39.5266 62.9289 38.128 61.7778C36.7295 60.6267 34.6626 60.8273 33.5115 62.2258Z" fill="white"/>
<path d="M30.184 59.5937L20.6559 71.1698C19.5048 72.5684 19.7053 74.6353 21.1039 75.7864C22.5024 76.9375 24.5693 76.7369 25.7204 75.3384L35.2485 63.7623C36.3997 62.3637 36.1991 60.2968 34.8005 59.1457C33.402 57.9946 31.3351 58.1952 30.184 59.5937Z" fill="white"/>
<path d="M42.3337 60.9207L37.5256 75.1219C36.9447 76.8376 37.8646 78.6993 39.5803 79.2802C41.296 79.8611 43.1577 78.9411 43.7386 77.2255L48.5467 63.0243C49.1276 61.3086 48.2077 59.4469 46.492 58.866C44.7764 58.2851 42.9146 59.2051 42.3337 60.9207Z" fill="white"/>
<path d="M47.6308 60.2288L42.8227 74.43C42.2418 76.1457 43.1617 78.0074 44.8774 78.5883C46.5931 79.1692 48.4548 78.2492 49.0357 76.5336L53.8439 62.3324C54.4247 60.6167 53.5048 58.755 51.7891 58.1741C50.0735 57.5932 48.2117 58.5132 47.6308 60.2288Z" fill="white"/>
<path d="M49.7592 58.9959L48.3856 73.9259C48.2196 75.7296 49.5473 77.3263 51.351 77.4923C53.1548 77.6582 54.7515 76.3306 54.9174 74.5268L56.2911 59.5968C56.457 57.7931 55.1294 56.1964 53.3256 56.0304C51.5219 55.8645 49.9252 57.1922 49.7592 58.9959Z" fill="white"/>
<path d="M33.8716 61.7339L32.498 76.6639C32.332 78.4676 33.6597 80.0643 35.4634 80.2303C37.2672 80.3962 38.8639 79.0686 39.0299 77.2648L40.4035 62.3349C40.5694 60.5311 39.2418 58.9344 37.438 58.7684C35.6343 58.6025 34.0376 59.9302 33.8716 61.7339Z" fill="white"/>
<path d="M52.5934 57.9868L53.5565 72.9488C53.6729 74.7565 55.2326 76.1275 57.0402 76.0111C58.8478 75.8948 60.2188 74.3351 60.1024 72.5275L59.1393 57.5654C59.023 55.7578 57.4633 54.3868 55.6557 54.5031C53.8481 54.6195 52.4771 56.1792 52.5934 57.9868Z" fill="white"/>
<path d="M60.3426 55.6245L58.969 70.5545C58.803 72.3582 60.1307 73.9549 61.9344 74.1209C63.7382 74.2868 65.3349 72.9592 65.5008 71.1554L66.8745 56.2255C67.0404 54.4217 65.7128 52.825 63.909 52.659C62.1053 52.4931 60.5086 53.8208 60.3426 55.6245Z" fill="white"/>
<path d="M65.6323 53.6075L64.2587 68.5375C64.0927 70.3412 65.4204 71.9379 67.2241 72.1039C69.0279 72.2698 70.6246 70.9422 70.7905 69.1384L72.1642 54.2084C72.3301 52.4047 71.0025 50.808 69.1987 50.642C67.395 50.4761 65.7983 51.8038 65.6323 53.6075Z" fill="white"/>
<path d="M70.9185 50.9278L69.5449 65.8578C69.3789 67.6615 70.7066 69.2582 72.5103 69.4242C74.314 69.5901 75.9108 68.2625 76.0767 66.4587L77.4504 51.5287C77.6163 49.725 76.2886 48.1283 74.4849 47.9623C72.6812 47.7964 71.0845 49.1241 70.9185 50.9278Z" fill="white"/>
<path d="M76.5378 48.5777L75.1642 63.5077C74.9982 65.3114 76.3259 66.9081 78.1296 67.0741C79.9334 67.24 81.5301 65.9123 81.6961 64.1086L83.0697 49.1786C83.2357 47.3749 81.908 45.7782 80.1042 45.6122C78.3005 45.4463 76.7038 46.7739 76.5378 48.5777Z" fill="white"/>
<path d="M73.4478 59.7115L88.4097 60.6775C90.2173 60.7942 91.7772 59.4235 91.8939 57.6159C92.0106 55.8083 90.6399 54.2484 88.8323 54.1317L73.8704 53.1657C72.0628 53.049 70.5029 54.4197 70.3862 56.2273C70.2695 58.0349 71.6402 59.5948 73.4478 59.7115Z" fill="white"/>
<path d="M77.7382 56.7061L92.7001 57.6721C94.5077 57.7888 96.0676 56.4181 96.1843 54.6105C96.301 52.8029 94.9303 51.243 93.1227 51.1263L78.1608 50.1603C76.3532 50.0436 74.7933 51.4143 74.6766 53.2219C74.5599 55.0295 75.9306 56.5894 77.7382 56.7061Z" fill="white"/>
<path d="M80.7034 53.708L95.6653 54.674C97.4729 54.7907 99.0328 53.42 99.1495 51.6124C99.2662 49.8048 97.8955 48.2449 96.0879 48.1282L81.126 47.1622C79.3184 47.0455 77.7585 48.4162 77.6418 50.2238C77.5251 52.0314 78.8958 53.5913 80.7034 53.708Z" fill="white"/>
<path d="M82.0032 49.0624L96.9651 50.0284C98.7727 50.1451 100.333 48.7744 100.449 46.9668C100.566 45.1592 99.1953 43.5993 97.3877 43.4826L82.4258 42.5166C80.6182 42.3999 79.0583 43.7706 78.9416 45.5782C78.8249 47.3858 80.1956 48.9457 82.0032 49.0624Z" fill="white"/>
<path d="M69.1573 62.717L84.1192 63.683C85.9268 63.7997 87.4867 62.429 87.6034 60.6214C87.7201 58.8138 86.3494 57.2539 84.5418 57.1372L69.5799 56.1712C67.7723 56.0545 66.2124 57.4252 66.0957 59.2328C65.979 61.0404 67.3497 62.6003 69.1573 62.717Z" fill="white"/>
<path d="M64.7364 71.5823C86.1484 63.4607 101.572 51.7773 99.1861 45.4867C96.8001 39.1961 77.5079 40.6805 56.0958 48.8021C34.6838 56.9238 19.2601 68.6071 21.6461 74.8977C24.0321 81.1883 43.3243 79.7039 64.7364 71.5823Z" fill="white"/>
</g>
<g filter="url(#filter2_ii_20_87)">
<path d="M97.0889 38.6703C99.4749 44.9609 84.0513 56.6442 62.6392 64.7658C41.2272 72.8874 21.935 74.3718 19.549 68.0812C17.163 61.7907 30.369 47.4528 51.7811 39.3312C73.1931 31.2096 94.7029 32.3798 97.0889 38.6703Z" fill="#FFDB95"/>
</g>
<g filter="url(#filter3_i_20_87)">
<path d="M150.777 66.6138C147.982 72.7337 125.801 77.7765 101.203 64.6576C80.3718 55.1448 72.5455 38.2851 75.3402 32.1651C78.1349 26.0452 97.2876 28.7956 118.119 38.3083C138.95 47.821 153.572 60.4938 150.777 66.6138Z" fill="#F19D9D"/>
</g>
<g filter="url(#filter4_ii_20_87)">
<path d="M97.3789 29.8163L82.4482 31.1822C80.6444 31.3472 79.3159 32.9433 79.4809 34.7471C79.6459 36.5509 81.2419 37.8794 83.0458 37.7144L97.9765 36.3485C99.7803 36.1835 101.109 34.5875 100.944 32.7836C100.779 30.9798 99.1827 29.6513 97.3789 29.8163Z" fill="white"/>
<path d="M95.0362 25.5996L80.1055 26.9655C78.3017 27.1305 76.9732 28.7266 77.1382 30.5304C77.3032 32.3342 78.8992 33.6627 80.703 33.4977L95.6337 32.1318C97.4376 31.9668 98.7661 30.3708 98.601 28.567C98.436 26.7631 96.84 25.4346 95.0362 25.5996Z" fill="white"/>
<path d="M94.5677 21.3828L79.637 22.7487C77.8332 22.9137 76.5047 24.5098 76.6697 26.3136C76.8347 28.1174 78.4308 29.4459 80.2346 29.2809L95.1653 27.915C96.9691 27.75 98.2976 26.154 98.1326 24.3502C97.9676 22.5463 96.3715 21.2178 94.5677 21.3828Z" fill="white"/>
<path d="M102.168 30.9542L88.6898 37.5219C87.0615 38.3154 86.3847 40.2786 87.1782 41.9069C87.9716 43.5352 89.9349 44.212 91.5632 43.4185L105.041 36.8509C106.669 36.0574 107.346 34.0942 106.553 32.4659C105.759 30.8376 103.796 30.1608 102.168 30.9542Z" fill="white"/>
<path d="M106.385 34.2341L92.9066 40.8017C91.2783 41.5952 90.6015 43.5584 91.395 45.1867C92.1884 46.815 94.1516 47.4918 95.78 46.6984L109.258 40.1307C110.886 39.3372 111.563 37.374 110.77 35.7457C109.976 34.1174 108.013 33.4406 106.385 34.2341Z" fill="white"/>
<path d="M108.758 34.8803L97.1769 44.4024C95.7778 45.5528 95.5762 47.6196 96.7265 49.0188C97.8769 50.4179 99.9437 50.6195 101.343 49.4692L112.924 39.9471C114.323 38.7967 114.525 36.7299 113.374 35.3307C112.224 33.9316 110.157 33.73 108.758 34.8803Z" fill="white"/>
<path d="M95.6392 25.5096L84.0582 35.0317C82.659 36.1821 82.4574 38.2489 83.6078 39.648C84.7582 41.0472 86.825 41.2488 88.2241 40.0984L99.8051 30.5763C101.204 29.426 101.406 27.3592 100.256 25.96C99.1052 24.5609 97.0384 24.3592 95.6392 25.5096Z" fill="white"/>
<path d="M111.469 36.1857L101.508 47.3918C100.305 48.7456 100.427 50.8186 101.78 52.022C103.134 53.2254 105.207 53.1034 106.411 51.7496L116.371 40.5435C117.575 39.1897 117.453 37.1166 116.099 35.9133C114.745 34.7099 112.672 34.8319 111.469 36.1857Z" fill="white"/>
<path d="M118.597 40.0341L107.016 49.5562C105.617 50.7066 105.416 52.7734 106.566 54.1725C107.716 55.5717 109.783 55.7733 111.182 54.6229L122.763 45.1009C124.162 43.9505 124.364 41.8837 123.214 40.4845C122.063 39.0854 119.997 38.8837 118.597 40.0341Z" fill="white"/>
<path d="M123.751 42.3768L112.17 51.8989C110.771 53.0493 110.57 55.1161 111.72 56.5153C112.87 57.9144 114.937 58.116 116.336 56.9657L127.917 47.4436C129.316 46.2932 129.518 44.2264 128.368 42.8272C127.217 41.4281 125.151 41.2265 123.751 42.3768Z" fill="white"/>
<path d="M129.373 44.2509L117.792 53.773C116.393 54.9234 116.192 56.9902 117.342 58.3893C118.492 59.7885 120.559 59.9901 121.958 58.8397L133.539 49.3176C134.938 48.1673 135.14 46.1005 133.99 44.7013C132.839 43.3022 130.773 43.1005 129.373 44.2509Z" fill="white"/>
<path d="M134.996 46.5936L123.415 56.1157C122.016 57.2661 121.815 59.3329 122.965 60.7321C124.115 62.1312 126.182 62.3328 127.581 61.1825L139.162 51.6604C140.561 50.51 140.763 48.4432 139.613 47.044C138.462 45.6449 136.396 45.4433 134.996 46.5936Z" fill="white"/>
<path d="M124.907 52.2259L134.742 63.543C135.93 64.9102 138.001 65.0554 139.369 63.8673C140.736 62.6792 140.881 60.6077 139.693 59.2404L129.859 47.9233C128.671 46.5561 126.599 46.4109 125.232 47.599C123.865 48.7871 123.719 50.8586 124.907 52.2259Z" fill="white"/>
<path d="M130.06 53.1629L139.895 64.48C141.083 65.8472 143.154 65.9924 144.522 64.8043C145.889 63.6162 146.034 61.5447 144.846 60.1775L135.012 48.8603C133.824 47.4931 131.752 47.3479 130.385 48.536C129.017 49.7241 128.872 51.7956 130.06 53.1629Z" fill="white"/>
<path d="M134.277 53.1629L144.112 64.48C145.3 65.8472 147.371 65.9924 148.739 64.8043C150.106 63.6162 150.251 61.5447 149.063 60.1775L139.229 48.8603C138.041 47.4931 135.969 47.3479 134.602 48.536C133.234 49.7241 133.089 51.7956 134.277 53.1629Z" fill="white"/>
<path d="M138.494 50.8203L148.329 62.1374C149.517 63.5046 151.588 63.6499 152.956 62.4617C154.323 61.2736 154.468 59.2021 153.28 57.8348L143.446 46.5177C142.257 45.1505 140.186 45.0053 138.819 46.1934C137.451 47.3815 137.306 49.453 138.494 50.8203Z" fill="white"/>
<path d="M119.753 51.2888L129.588 62.6059C130.776 63.9731 132.847 64.1183 134.215 62.9302C135.582 61.7421 135.727 59.6706 134.539 58.3034L124.705 46.9862C123.517 45.619 121.445 45.4738 120.078 46.6619C118.71 47.85 118.565 49.9215 119.753 51.2888Z" fill="white"/>
<path d="M110.341 54.3797C131.172 63.8924 150.325 66.6428 153.119 60.5228C155.914 54.4028 141.293 41.73 120.461 32.2173C99.6299 22.7046 80.4772 19.9542 77.6825 26.0742C74.8878 32.1942 89.5094 44.8669 110.341 54.3797Z" fill="white"/>
</g>
<g filter="url(#filter5_ii_20_87)">
<path d="M156.492 54.2385C153.697 60.3584 134.544 57.608 113.713 48.0953C92.8815 38.5825 78.26 25.9098 81.0547 19.7898C83.8494 13.6699 103.33 12.9769 124.161 22.4896C144.993 32.0023 159.286 48.1185 156.492 54.2385Z" fill="#F19D9D"/>
</g>
<g filter="url(#filter6_i_20_87)">
<path d="M162.652 93.7619C161.601 100.407 141.585 111.215 114.369 105.174C91.7499 101.597 79.6883 87.4544 80.7391 80.8091C81.7899 74.1638 100.979 71.6763 123.598 75.2531C146.218 78.8299 163.703 87.1166 162.652 93.7619Z" fill="#DDE7FF"/>
</g>
<g filter="url(#filter7_ii_20_87)">
<path d="M101.34 72.6352L87.3231 77.9557C85.6296 78.5985 84.7779 80.4924 85.4207 82.1859C86.0635 83.8793 87.9574 84.7311 89.6508 84.0883L103.668 78.7678C105.362 78.125 106.213 76.2311 105.57 74.5376C104.928 72.8442 103.034 71.9924 101.34 72.6352Z" fill="white"/>
<path d="M97.9525 69.2012L83.9353 74.5217C82.2418 75.1645 81.3901 77.0584 82.0329 78.7519C82.6757 80.4453 84.5696 81.2971 86.263 80.6543L100.28 75.3338C101.974 74.691 102.825 72.7971 102.183 71.1036C101.54 69.4102 99.646 68.5585 97.9525 69.2012Z" fill="white"/>
<path d="M96.37 65.2647L82.3528 70.5852C80.6593 71.228 79.8076 73.1219 80.4504 74.8154C81.0931 76.5088 82.987 77.3606 84.6805 76.7178L98.6978 71.3973C100.391 70.7545 101.243 68.8606 100.6 67.1671C99.9574 65.4737 98.0635 64.6219 96.37 65.2647Z" fill="white"/>
<path d="M106.259 72.447L95.0365 82.3891C93.6807 83.5902 93.5553 85.663 94.7564 87.0188C95.9576 88.3747 98.0304 88.5001 99.3862 87.299L110.609 77.3569C111.965 76.1558 112.09 74.0829 110.889 72.7271C109.688 71.3713 107.615 71.2459 106.259 72.447Z" fill="white"/>
<path d="M111.201 74.4755L99.9784 84.4176C98.6226 85.6187 98.4972 87.6915 99.6983 89.0474C100.899 90.4032 102.972 90.5286 104.328 89.3275L115.551 79.3854C116.907 78.1843 117.032 76.1114 115.831 74.7556C114.63 73.3998 112.557 73.2744 111.201 74.4755Z" fill="white"/>
<path d="M113.661 74.4615L105.058 86.741C104.019 88.2245 104.379 90.2696 105.862 91.3089C107.346 92.3482 109.391 91.9882 110.43 90.5046L119.033 78.2252C120.072 76.7417 119.712 74.6965 118.229 73.6572C116.745 72.6179 114.7 72.978 113.661 74.4615Z" fill="white"/>
<path d="M98.5093 68.9529L89.9066 81.2324C88.8672 82.7159 89.2273 84.761 90.7108 85.8003C92.1944 86.8397 94.2395 86.4796 95.2788 84.9961L103.882 72.7166C104.921 71.2331 104.561 69.1879 103.077 68.1486C101.594 67.1093 99.5486 67.4694 98.5093 68.9529Z" fill="white"/>
<path d="M116.623 74.9922L110.033 88.4593C109.236 90.0863 109.91 92.0506 111.537 92.8468C113.164 93.6429 115.128 92.9694 115.924 91.3424L122.514 77.8753C123.311 76.2483 122.637 74.284 121.01 73.4878C119.383 72.6917 117.419 73.3652 116.623 74.9922Z" fill="white"/>
<path d="M124.522 76.7875L115.919 89.067C114.88 90.5505 115.24 92.5956 116.723 93.6349C118.207 94.6743 120.252 94.3142 121.291 92.8307L129.894 80.5512C130.933 79.0677 130.573 77.0226 129.089 75.9832C127.606 74.9439 125.561 75.304 124.522 76.7875Z" fill="white"/>
<path d="M130.116 77.662L121.513 89.9415C120.474 91.425 120.834 93.4701 122.317 94.5094C123.801 95.5487 125.846 95.1887 126.885 93.7051L135.488 81.4257C136.527 79.9422 136.167 77.897 134.683 76.8577C133.2 75.8184 131.155 76.1785 130.116 77.662Z" fill="white"/>
<path d="M136.035 77.9594L127.432 90.2389C126.393 91.7224 126.753 93.7675 128.236 94.8068C129.72 95.8462 131.765 95.4861 132.804 94.0026L141.407 81.7231C142.446 80.2396 142.086 78.1945 140.602 77.1551C139.119 76.1158 137.074 76.4759 136.035 77.9594Z" fill="white"/>
<path d="M142.079 78.7082L133.476 90.9877C132.437 92.4712 132.797 94.5163 134.28 95.5556C135.764 96.595 137.809 96.2349 138.848 94.7513L147.451 82.4719C148.49 80.9884 148.13 78.9432 146.647 77.9039C145.163 76.8646 143.118 77.2247 142.079 78.7082Z" fill="white"/>
<path d="M133.87 86.8403L146.38 95.1048C147.891 96.1033 149.925 95.6876 150.924 94.1763C151.922 92.6649 151.507 90.6304 149.995 89.6319L137.486 81.3674C135.974 80.3689 133.94 80.7847 132.941 82.296C131.943 83.8073 132.359 85.8419 133.87 86.8403Z" fill="white"/>
<path d="M139.087 86.3606L151.597 94.6251C153.108 95.6236 155.142 95.2079 156.141 93.6965C157.139 92.1852 156.724 90.1507 155.212 89.1522L142.703 80.8877C141.191 79.8892 139.157 80.305 138.158 81.8163C137.16 83.3276 137.576 85.3622 139.087 86.3606Z" fill="white"/>
<path d="M143.149 85.2295L155.659 93.494C157.17 94.4925 159.204 94.0767 160.203 92.5654C161.201 91.0541 160.786 89.0195 159.274 88.0211L146.765 79.7566C145.253 78.7581 143.219 79.1739 142.22 80.6852C141.222 82.1965 141.638 84.231 143.149 85.2295Z" fill="white"/>
<path d="M146.583 81.8417L159.093 90.1062C160.604 91.1047 162.638 90.6889 163.637 89.1776C164.635 87.6663 164.22 85.6317 162.708 84.6333L150.199 76.3688C148.687 75.3703 146.653 75.7861 145.654 77.2974C144.656 78.8087 145.072 80.8432 146.583 81.8417Z" fill="white"/>
<path d="M128.654 87.3198L141.164 95.5843C142.675 96.5828 144.709 96.1671 145.708 94.6557C146.706 93.1444 146.291 91.1099 144.779 90.1114L132.27 81.8469C130.758 80.8484 128.724 81.2642 127.725 82.7755C126.727 84.2868 127.143 86.3214 128.654 87.3198Z" fill="white"/>
<path d="M120.416 92.8218C143.036 96.3986 162.224 93.9111 163.275 87.2658C164.326 80.6205 146.841 72.3338 124.222 68.757C101.602 65.1802 82.4135 67.6677 81.3627 74.313C80.3119 80.9583 97.7968 89.245 120.416 92.8218Z" fill="white"/>
</g>
<g filter="url(#filter8_ii_20_87)">
<path d="M164.837 80.3073C163.787 86.9526 144.598 89.4401 121.979 85.8633C99.359 82.2865 81.8741 73.9998 82.9249 67.3545C83.9757 60.7093 102.557 54.8166 125.176 58.3934C147.796 61.9702 165.888 73.662 164.837 80.3073Z" fill="#DDE7FF"/>
</g>
<path d="M8.0915 69.6001L7.5757 69.4166L7.77869 68.846L4.37908 67.6364L4.17609 68.207L3.66028 68.0234L5.04506 64.1315L6.4518 64.632L6.24603 65.2103L5.3551 64.8933L4.67105 66.8159L6.03089 67.2997L6.44243 66.143L5.97352 65.9762L6.12368 65.5542L7.60857 66.0825L7.45841 66.5045L6.96605 66.3293L6.55451 67.486L8.07066 68.0254L8.27921 67.4393L8.79501 67.6228L8.0915 69.6001Z" fill="black"/>
<path d="M12.2225 59.5306C12.0552 59.8858 11.8482 60.1826 11.6014 60.4209C11.3521 60.6519 11.079 60.8228 10.7823 60.9337C10.4829 61.0372 10.1747 61.0816 9.85773 61.0668C9.54073 61.0519 9.22964 60.9727 8.92446 60.8289C8.61927 60.6852 8.36002 60.4959 8.1467 60.2609C7.92838 60.0236 7.76628 59.7578 7.66041 59.4634C7.55189 59.1617 7.50725 58.8411 7.52649 58.5018C7.54808 58.1574 7.64253 57.8076 7.80982 57.4524C7.97476 57.1022 8.18192 56.8116 8.43129 56.5806C8.68302 56.3446 8.95976 56.1724 9.26148 56.0639C9.55821 55.953 9.86757 55.9061 10.1896 55.9233C10.5066 55.9381 10.8177 56.0174 11.1228 56.1611C11.428 56.3049 11.6873 56.4942 11.9006 56.7292C12.1139 56.9641 12.2748 57.2324 12.3834 57.5342C12.4869 57.8335 12.529 58.1529 12.5098 58.4923C12.4855 58.8293 12.3898 59.1754 12.2225 59.5306ZM11.6596 59.2655C11.768 59.0354 11.8233 58.8077 11.8254 58.5826C11.8299 58.3524 11.7877 58.1369 11.6989 57.9362C11.6101 57.7354 11.4834 57.5566 11.3189 57.3996C11.1518 57.2353 10.9532 57.099 10.723 56.9906C10.4929 56.8822 10.2613 56.8159 10.0281 56.7917C9.7974 56.7625 9.57635 56.7776 9.365 56.837C9.15365 56.8964 8.96067 57.0011 8.78609 57.1511C8.61385 57.2962 8.47354 57.4838 8.36516 57.7139C8.25205 57.9541 8.19444 58.1867 8.19231 58.4119C8.19254 58.6321 8.23956 58.8437 8.33339 59.0468C8.42222 59.2476 8.55138 59.4276 8.72087 59.5869C8.89036 59.7462 9.09017 59.88 9.32031 59.9884C9.55045 60.0968 9.78089 60.1656 10.0116 60.1948C10.2374 60.2217 10.4559 60.2054 10.6673 60.146C10.8786 60.0866 11.0693 59.9869 11.2391 59.8469C11.4064 59.6995 11.5465 59.5057 11.6596 59.2655Z" fill="black"/>
<path d="M15.3411 53.2289L14.8722 52.9464L15.1847 52.4277L12.0939 50.5655L11.7814 51.0842L11.3125 50.8017L12.6396 48.5991C12.8165 48.3054 13.0109 48.0739 13.2227 47.9045C13.4297 47.7323 13.6495 47.6354 13.8819 47.6141C14.1171 47.5879 14.3603 47.6505 14.6113 47.8018C14.7961 47.9131 14.9404 48.0485 15.0445 48.208C15.1466 48.3599 15.2032 48.5393 15.2142 48.7461C15.2233 48.9452 15.1807 49.1714 15.0864 49.4244L16.9927 49.4108L17.318 48.8708L17.7941 49.1576L17.1477 50.2305L14.7321 50.1891L14.4667 50.6296L13.9836 50.3385L14.3432 49.7417C14.4659 49.538 14.5307 49.3608 14.5376 49.21C14.5398 49.0564 14.5054 48.9259 14.4345 48.8186C14.3588 48.7084 14.2641 48.6191 14.1505 48.5506C14.0368 48.4821 13.9192 48.4468 13.7978 48.4447C13.6717 48.4397 13.5488 48.4722 13.4292 48.5422C13.3096 48.6122 13.2012 48.7277 13.1042 48.8887L12.5434 49.8195L15.6342 51.6817L15.9424 51.1701L16.4114 51.4526L15.3411 53.2289Z" fill="black"/>
<path d="M23.8927 40.7135L23.4757 40.3588L23.8681 39.8975L21.1195 37.5596L20.7272 38.0208L20.3102 37.6661L21.858 35.8464C22.2414 35.3957 22.6216 35.1237 22.9985 35.0305C23.3755 34.9373 23.7367 35.0376 24.0821 35.3314C24.4401 35.636 24.6097 35.9872 24.5908 36.3849C24.5677 36.7791 24.3644 37.2015 23.9811 37.6523L23.5941 38.1072L23.1771 37.7525L23.521 37.3481C23.7289 37.1038 23.8314 36.8679 23.8288 36.6406C23.8261 36.4133 23.7174 36.2083 23.5025 36.0255C23.3004 35.8535 23.0964 35.7817 22.8908 35.8101C22.6845 35.8307 22.4883 35.9505 22.3019 36.1695L21.6839 36.8961L24.4324 39.2341L24.8355 38.7602L25.2525 39.1149L23.8927 40.7135Z" fill="black"/>
<path d="M29.3879 34.5283L29.0063 34.1358L29.4404 33.7136L26.9248 31.1267L26.4907 31.5488L26.109 31.1563L29.1182 28.2302L30.136 29.2768L29.69 29.7106L29.0539 29.0564L27.5493 30.5195L28.5613 31.5602L29.4652 30.6812L29.1009 30.3065L29.4161 30L30.538 31.1538L30.2228 31.4603L29.8469 31.0737L28.943 31.9527L30.0591 33.1005L31.5934 31.6085L30.9341 30.9305L31.3742 30.5026L32.4209 31.579L29.3879 34.5283Z" fill="black"/>
<path d="M38.0592 26.8639C37.7513 27.1075 37.4338 27.2811 37.1068 27.3847C36.7807 27.4805 36.4601 27.512 36.145 27.4792C35.8309 27.4386 35.5352 27.3412 35.2579 27.1868C34.9806 27.0324 34.7374 26.823 34.5281 26.5584C34.3188 26.2938 34.1709 26.0089 34.0845 25.7035C33.9946 25.3939 33.9678 25.0837 34.004 24.7729C34.0412 24.4544 34.1439 24.1475 34.3122 23.8522C34.4848 23.5535 34.7251 23.2823 35.033 23.0387C35.3366 22.7985 35.6514 22.6305 35.9776 22.5347C36.308 22.4354 36.6325 22.4043 36.951 22.4415C37.2661 22.4743 37.5639 22.57 37.8446 22.7288C38.1219 22.8831 38.3652 23.0926 38.5745 23.3572C38.7838 23.6217 38.9316 23.9067 39.0181 24.212C39.1045 24.5174 39.1292 24.8293 39.092 25.1478C39.0514 25.4619 38.947 25.7667 38.7787 26.062C38.607 26.353 38.3672 26.6203 38.0592 26.8639ZM37.6732 26.376C37.8727 26.2181 38.0236 26.0389 38.1257 25.8382C38.2322 25.6341 38.2903 25.4224 38.3002 25.2031C38.31 24.9837 38.2762 24.7672 38.1988 24.5535C38.1222 24.3319 38.005 24.1214 37.8472 23.9219C37.6894 23.7224 37.5115 23.56 37.3135 23.4345C37.1199 23.3056 36.9152 23.2208 36.6995 23.1799C36.4838 23.139 36.2644 23.1468 36.0413 23.2035C35.8225 23.2567 35.6134 23.3622 35.4139 23.5201C35.2057 23.6848 35.0505 23.8674 34.9484 24.0681C34.8506 24.2654 34.7985 24.4758 34.7921 24.6995C34.7823 24.9188 34.8178 25.1375 34.8986 25.3556C34.9795 25.5737 35.0989 25.7825 35.2567 25.982C35.4145 26.1815 35.5902 26.3457 35.7839 26.4745C35.9741 26.5991 36.177 26.6818 36.3927 26.7227C36.6084 26.7636 36.8235 26.7591 37.0379 26.7094C37.2533 26.6518 37.4651 26.5407 37.6732 26.376Z" fill="black"/>
<path d="M43.6624 22.6159L43.3665 22.1553L43.876 21.828L41.9258 18.792L41.4163 19.1193L41.1204 18.6587L43.1304 17.3675C43.6282 17.0477 44.0711 16.898 44.4588 16.9184C44.8466 16.9388 45.163 17.1398 45.4081 17.5213C45.6621 17.9168 45.7223 18.3021 45.5886 18.6772C45.4519 19.0476 45.1346 19.3927 44.6368 19.7125L44.1343 20.0353L43.8384 19.5747L44.285 19.2878C44.5549 19.1144 44.7216 18.9186 44.7851 18.7003C44.8487 18.482 44.8042 18.2542 44.6518 18.0169C44.5083 17.7936 44.3341 17.6656 44.1291 17.633C43.9258 17.5927 43.7031 17.6503 43.4612 17.8057L42.6586 18.3213L44.6088 21.3573L45.1322 21.021L45.4281 21.4816L43.6624 22.6159Z" fill="black"/>
<path d="M50.723 18.3024L50.47 17.8168L51.0071 17.5371L49.3324 14.3221L48.7953 14.6019L48.5501 14.1311L50.3966 13.1691L50.6419 13.64L50.1049 13.9197L51.7796 17.1347L53.3539 16.3146L52.7101 15.0786L53.2839 14.7797L54.1807 16.5012L50.723 18.3024Z" fill="black"/>
<path d="M58.1415 14.639L57.9355 14.1317L58.4966 13.9039L57.139 10.5606L56.578 10.7884L56.372 10.2812L60.261 8.70209L60.8102 10.0548L60.2338 10.2888L59.8905 9.4434L57.946 10.2329L58.4922 11.578L59.6604 11.1036L59.4638 10.6194L59.8711 10.454L60.4766 11.945L60.0692 12.1104L59.8664 11.6109L58.6981 12.0852L59.3004 13.5686L61.2834 12.7634L60.9276 11.8872L61.4963 11.6563L62.0612 13.0474L58.1415 14.639Z" fill="black"/>
<path d="M74.1462 9.3481L71.9957 5.54939L71.4758 5.65704L71.3648 5.12094L73.2249 4.73574L73.3359 5.27184L72.7836 5.38622L74.2894 8.1579L74.7072 4.53043L75.2839 4.41101L77.108 7.57421L77.3811 4.43416L76.8125 4.55191L76.7015 4.0158L78.4804 3.64742L78.5914 4.18353L78.0634 4.29286L77.6471 8.62312L76.9973 8.75768L75.218 5.7292L74.796 9.21353L74.1462 9.3481Z" fill="black"/>
<path d="M84.0907 7.63687L84.0349 7.09224L84.629 7.03137L84.2612 3.44177L83.6671 3.50264L83.6113 2.95801L85.6825 2.7458L85.7383 3.29043L85.136 3.35215L85.5037 6.94175L86.1061 6.88003L86.1619 7.42466L84.0907 7.63687Z" fill="black"/>
<path d="M91.9158 7.06432L91.9054 6.51694L92.5192 6.50533L92.4509 2.89759L91.2898 2.91954L91.311 4.03919L90.6973 4.05079L90.6657 2.38376L95.0697 2.30049L95.1012 3.96752L94.4875 3.97912L94.4663 2.85948L93.3218 2.88112L93.39 6.48886L94.0037 6.47726L94.0141 7.02464L91.9158 7.06432Z" fill="black"/>
<path d="M99.161 7.09577L99.2044 6.55002L99.8081 6.59805L100.094 3.00103L99.4907 2.953L99.5341 2.40724L101.61 2.57241L101.566 3.11816L100.963 3.07012L100.846 4.53374L103.104 4.71338L103.22 3.24977L102.616 3.20173L102.66 2.65597L104.735 2.82114L104.692 3.36689L104.088 3.31886L103.802 6.91588L104.406 6.96391L104.362 7.50967L102.287 7.3445L102.33 6.79875L102.934 6.84678L103.059 5.2674L100.802 5.08776L100.676 6.66714L101.28 6.71518L101.237 7.26093L99.161 7.09577Z" fill="black"/>
<path d="M117.035 9.89404C116.815 9.83887 116.614 9.75421 116.432 9.64005C116.256 9.52188 116.109 9.38227 115.99 9.22122C115.872 9.05481 115.793 8.87837 115.755 8.69191L115.883 8.72421L115.696 9.47248L115.068 9.31503L115.456 7.77023L116.027 7.91354C116.012 8.13215 116.041 8.33604 116.113 8.52522C116.191 8.71574 116.311 8.88282 116.475 9.02647C116.64 9.16475 116.845 9.26484 117.092 9.32675C117.339 9.38864 117.547 9.37807 117.716 9.29505C117.89 9.21338 118.005 9.06258 118.06 8.84266C118.105 8.66565 118.107 8.5208 118.067 8.4081C118.028 8.29004 117.943 8.18334 117.813 8.08801C117.683 7.99268 117.5 7.89529 117.262 7.79584L116.995 7.66888C116.564 7.47539 116.245 7.23571 116.038 6.94986C115.835 6.66535 115.783 6.32731 115.882 5.93575C115.949 5.66756 116.065 5.45439 116.23 5.29626C116.402 5.13411 116.611 5.02966 116.856 4.98292C117.102 4.93617 117.372 4.94981 117.667 5.02381C117.994 5.1059 118.264 5.24762 118.475 5.44898C118.688 5.64497 118.818 5.87711 118.865 6.1454L118.696 6.10301L118.868 5.41912L119.471 5.5705L119.144 6.87392L118.589 6.73465C118.588 6.60321 118.563 6.46303 118.515 6.31411C118.473 6.16118 118.386 6.02229 118.252 5.89744C118.119 5.76723 117.916 5.66781 117.642 5.5992C117.396 5.53729 117.188 5.54785 117.019 5.63087C116.855 5.71524 116.75 5.85129 116.702 6.03902C116.65 6.24822 116.687 6.42864 116.815 6.58031C116.947 6.73332 117.162 6.87835 117.458 7.0154L117.657 7.1081C117.996 7.25592 118.268 7.41239 118.472 7.57753C118.675 7.74267 118.81 7.93324 118.876 8.14923C118.942 8.35986 118.94 8.61 118.867 8.89965C118.802 9.15712 118.685 9.37296 118.516 9.54719C118.347 9.72141 118.137 9.84262 117.886 9.91082C117.635 9.97902 117.352 9.97343 117.035 9.89404Z" fill="black"/>
<path d="M124.454 11.9975L124.648 7.63659L124.15 7.45184L124.341 6.93858L126.122 7.59966L125.931 8.11292L125.402 7.91662L125.207 11.0649L127.487 8.21261L128.039 8.41758L127.905 12.0666L129.804 9.55057L129.259 9.34849L129.45 8.83523L131.153 9.46745L130.962 9.9807L130.457 9.79306L127.805 13.2417L127.183 13.0107L127.283 9.4997L125.076 12.2284L124.454 11.9975Z" fill="black"/>
<path d="M133.73 15.7733L133.977 15.2849L134.517 15.5585L136.148 12.3396L135.608 12.066L135.855 11.5776L139.6 13.4744L138.94 14.7767L138.385 14.4956L138.797 13.6816L136.925 12.7332L136.269 14.0282L137.394 14.598L137.63 14.1318L138.022 14.3304L137.295 15.766L136.903 15.5673L137.146 15.0864L136.022 14.5166L135.298 15.9447L137.207 16.9119L137.635 16.0683L138.182 16.3457L137.504 17.6851L133.73 15.7733Z" fill="black"/>
<path d="M141.633 20.0034L141.927 19.5417L142.438 19.867L144.376 16.8237L143.866 16.4983L144.16 16.0366L147.7 18.2918L146.915 19.5231L146.391 19.1888L146.881 18.4192L145.111 17.2917L144.331 18.516L145.394 19.1934L145.675 18.7527L146.046 18.9889L145.181 20.3461L144.811 20.1099L145.1 19.6552L144.037 18.9777L143.177 20.328L144.982 21.4779L145.49 20.6803L146.007 21.0101L145.201 22.2764L141.633 20.0034Z" fill="black"/>
<path d="M149.889 25.6282L150.226 25.1963L150.71 25.5735L152.927 22.7268L152.011 22.0132L151.323 22.8966L150.839 22.5194L151.863 21.204L155.338 23.9107L154.314 25.2261L153.829 24.8489L154.517 23.9654L153.614 23.262L151.397 26.1087L151.881 26.4859L151.545 26.9179L149.889 25.6282Z" fill="black"/>
<path d="M160.673 35.2715L161.073 34.8982L161.492 35.3472L164.131 32.887L163.34 32.0375L162.52 32.801L162.102 32.3519L163.322 31.2151L166.325 34.4373L165.105 35.5741L164.686 35.1251L165.506 34.3616L164.725 33.5242L162.086 35.9844L162.504 36.4334L162.104 36.8067L160.673 35.2715Z" fill="black"/>
<path d="M167.006 42.8241C166.768 42.512 166.6 42.1915 166.502 41.8627C166.412 41.535 166.386 41.2139 166.424 40.8995C166.47 40.5861 166.573 40.2921 166.732 40.0176C166.891 39.743 167.105 39.5034 167.373 39.2988C167.641 39.0941 167.928 38.9512 168.235 38.8701C168.546 38.7856 168.857 38.7642 169.167 38.8058C169.485 38.8485 169.79 38.9566 170.082 39.13C170.378 39.3078 170.645 39.5527 170.883 39.8648C171.118 40.1726 171.28 40.4903 171.371 40.818C171.464 41.1502 171.489 41.4751 171.447 41.7929C171.409 42.1074 171.308 42.4035 171.144 42.6814C170.985 42.956 170.771 43.1956 170.503 43.4002C170.235 43.6049 169.947 43.7478 169.641 43.8289C169.334 43.91 169.021 43.9292 168.704 43.8866C168.39 43.8405 168.087 43.7308 167.795 43.5574C167.507 43.3806 167.244 43.1362 167.006 42.8241ZM167.5 42.4466C167.655 42.6489 167.831 42.8028 168.03 42.9084C168.232 43.0184 168.443 43.0802 168.662 43.0939C168.881 43.1075 169.098 43.0775 169.313 43.0038C169.536 42.9311 169.749 42.8176 169.951 42.6633C170.153 42.5089 170.319 42.3339 170.448 42.1381C170.58 41.9468 170.668 41.7436 170.713 41.5287C170.758 41.3137 170.754 41.0942 170.701 40.8701C170.651 40.6504 170.549 40.4395 170.395 40.2373C170.234 40.0263 170.054 39.8679 169.855 39.7623C169.66 39.6611 169.45 39.6054 169.227 39.5951C169.008 39.5814 168.788 39.6131 168.569 39.6902C168.349 39.7673 168.139 39.883 167.936 40.0373C167.734 40.1916 167.567 40.3645 167.435 40.5558C167.307 40.7438 167.221 40.9453 167.176 41.1603C167.131 41.3752 167.132 41.5903 167.178 41.8056C167.232 42.022 167.339 42.2356 167.5 42.4466Z" fill="black"/>
<path d="M172.454 50.7766C172.25 50.4411 172.117 50.1047 172.054 49.7674C171.999 49.432 172.007 49.1099 172.078 48.8013C172.157 48.4945 172.29 48.213 172.478 47.9569C172.665 47.7007 172.903 47.485 173.191 47.3098C173.479 47.1346 173.78 47.0229 174.094 46.9747C174.412 46.9236 174.723 46.9351 175.027 47.0093C175.339 47.0853 175.631 47.225 175.903 47.4283C176.179 47.6364 176.418 47.9082 176.622 48.2437C176.823 48.5745 176.951 48.9077 177.006 49.2431C177.064 49.5833 177.055 49.9091 176.979 50.2206C176.907 50.5292 176.776 50.8131 176.584 51.0721C176.397 51.3283 176.159 51.544 175.87 51.7192C175.582 51.8943 175.281 52.006 174.968 52.0543C174.654 52.1025 174.341 52.0886 174.03 52.0126C173.723 51.9337 173.433 51.7926 173.161 51.5893C172.893 51.3831 172.658 51.1122 172.454 50.7766ZM172.985 50.4536C173.117 50.671 173.277 50.8427 173.463 50.9687C173.653 51.0995 173.856 51.1832 174.072 51.2199C174.289 51.2567 174.508 51.2497 174.729 51.1992C174.959 51.1505 175.182 51.0601 175.399 50.928C175.617 50.7959 175.8 50.6393 175.949 50.4583C176.1 50.282 176.21 50.0893 176.277 49.8803C176.344 49.6712 176.363 49.4525 176.334 49.2241C176.309 49.0004 176.23 48.7799 176.097 48.5625C175.96 48.3356 175.797 48.1592 175.611 48.0332C175.427 47.9118 175.225 47.8343 175.003 47.8004C174.787 47.7637 174.566 47.772 174.339 47.8255C174.113 47.8789 173.891 47.9717 173.674 48.1038C173.456 48.2359 173.272 48.3901 173.12 48.5664C172.973 48.7398 172.866 48.9311 172.799 49.1401C172.732 49.3491 172.71 49.5631 172.733 49.7821C172.763 50.0029 172.848 50.2267 172.985 50.4536Z" fill="black"/>
<path d="M176.426 57.7868L176.919 57.5498L177.185 58.1031L180.438 56.541L179.935 55.4941L178.925 55.9789L178.66 55.4256L180.163 54.7038L182.07 58.6744L180.567 59.3962L180.301 58.8428L181.31 58.358L180.815 57.3261L177.562 58.8882L177.828 59.4416L177.334 59.6786L176.426 57.7868Z" fill="black"/>
<path d="M179.41 64.389L179.924 64.2016L180.131 64.7706L183.522 63.5353L183.314 62.9664L183.829 62.7789L184.542 64.7352L184.027 64.9226L183.82 64.3537L182.44 64.8563L183.216 66.984L184.595 66.4814L184.388 65.9125L184.902 65.725L185.615 67.6813L185.101 67.8687L184.893 67.2998L181.503 68.5351L181.71 69.104L181.196 69.2914L180.483 67.3352L180.997 67.1477L181.205 67.7167L182.693 67.1743L181.918 65.0466L180.429 65.5889L180.637 66.1579L180.122 66.3453L179.41 64.389Z" fill="black"/>
<path d="M44.072 115.326C44.072 115.642 43.5495 116.42 42.5045 117.659H42.2858C42.1238 117.594 42.0225 117.356 41.982 116.942C41.8929 116.108 41.6053 115.428 41.1193 114.901C40.6332 114.366 40.05 114.099 39.3695 114.099C38.7296 114.099 38.1787 114.334 37.717 114.804C37.2552 115.266 37.0244 115.82 37.0244 116.468C37.0244 116.938 37.1702 117.445 37.4618 117.987C37.7534 118.522 38.5108 119.373 39.7341 120.539C40.9654 121.706 41.7552 122.637 42.1035 123.334C42.4519 124.022 42.626 124.679 42.626 125.302C42.626 126.744 41.9982 128.016 40.7426 129.118C39.4951 130.211 38.0329 130.758 36.3561 130.758C34.9708 130.758 33.8286 130.438 32.9294 129.798C32.0303 129.15 31.5807 128.624 31.5807 128.219C31.5807 127.992 31.8277 127.465 32.3219 126.639C32.816 125.813 33.0996 125.4 33.1725 125.4C33.4317 125.4 33.614 125.477 33.7193 125.63C33.8327 125.776 33.9096 126.052 33.9501 126.457C34.0716 127.72 34.3754 128.591 34.8615 129.069C35.3556 129.547 35.9956 129.786 36.7813 129.786C37.64 129.786 38.3893 129.49 39.0293 128.899C39.6693 128.3 39.9892 127.607 39.9892 126.821C39.9892 126.416 39.8637 125.987 39.6125 125.533C39.3695 125.071 38.6688 124.294 37.5104 123.2C36.3601 122.099 35.6067 121.167 35.2503 120.405C34.8939 119.644 34.7157 118.903 34.7157 118.182C34.7157 116.926 35.1895 115.772 36.1373 114.719C37.0851 113.666 38.3448 113.139 39.9163 113.139C41.1071 113.139 42.0954 113.415 42.8812 113.965C43.6751 114.508 44.072 114.962 44.072 115.326ZM58.3738 127.769C57.3045 128.782 56.4094 129.531 55.6885 130.017C54.9675 130.495 54.3194 130.734 53.7443 130.734C53.1043 130.734 52.6102 130.479 52.2618 129.968C51.9216 129.458 51.7515 128.765 51.7515 127.891C50.8604 128.871 50.0625 129.596 49.3577 130.066C48.653 130.527 47.9644 130.758 47.292 130.758C46.6764 130.758 46.1822 130.503 45.8096 129.993C45.437 129.482 45.2507 128.79 45.2507 127.915C45.2507 126.23 45.8177 123.856 46.9518 120.794L50.184 120.15C48.8555 124.031 48.1912 126.522 48.1912 127.623C48.1912 128.401 48.4829 128.79 49.0661 128.79C49.4873 128.79 50.0098 128.449 50.6336 127.769C51.2574 127.08 51.6462 126.481 51.8001 125.971L53.3919 120.794L56.697 120.126C55.9355 122.564 55.413 124.278 55.1295 125.266C54.846 126.254 54.7042 126.947 54.7042 127.344C54.7042 128.105 54.9634 128.486 55.4819 128.486C55.9031 128.486 56.5269 128.101 57.3532 127.332L58.3738 126.372V127.769ZM70.3062 127.769C69.2774 128.846 68.0461 129.64 66.6123 130.151C65.9399 132.249 65.0853 133.865 64.0484 134.999C63.0196 136.133 61.926 136.7 60.7676 136.7C60.1358 136.7 59.6254 136.502 59.2366 136.105C58.8477 135.708 58.6533 135.185 58.6533 134.537C58.6533 133.67 59.0381 132.893 59.8077 132.204C60.5853 131.516 61.9017 130.851 63.7568 130.211L64.2793 127.818C63.5016 128.692 62.8292 129.337 62.2622 129.75C61.6951 130.155 61.124 130.357 60.5489 130.357C59.8765 130.357 59.3257 130.041 58.8963 129.409C58.467 128.778 58.2523 127.955 58.2523 126.943C58.2523 125.29 58.8801 123.743 60.1358 122.301C61.3995 120.851 62.7401 120.126 64.1578 120.126C64.9435 120.126 65.6402 120.458 66.2478 121.122C66.6123 120.993 67.0862 120.798 67.6694 120.539L68.5322 120.15H68.8116C68.4957 121.106 68.2527 122.038 68.0826 122.945L66.9404 129.033C68.034 128.62 69.1559 127.733 70.3062 126.372V127.769ZM62.4809 128.17C63.0561 128.17 63.5664 127.83 64.012 127.149C64.4575 126.469 64.8018 125.606 65.0448 124.561C65.2959 123.516 65.4215 122.791 65.4215 122.386C65.4215 122.005 65.3243 121.693 65.1299 121.45C64.9435 121.199 64.7086 121.074 64.4251 121.074C63.5664 121.074 62.8171 121.653 62.1771 122.811C61.5372 123.97 61.2172 125.148 61.2172 126.347C61.2172 126.906 61.3306 127.352 61.5574 127.684C61.7924 128.008 62.1002 128.17 62.4809 128.17ZM63.5016 131.281C60.8851 132.22 59.5768 133.306 59.5768 134.537C59.5768 134.902 59.6862 135.197 59.9049 135.424C60.1236 135.659 60.4031 135.777 60.7433 135.777C61.3266 135.777 61.8329 135.408 62.2622 134.671C62.6915 133.934 63.1047 132.804 63.5016 131.281ZM83.2836 127.769C81.9875 129 81.0599 129.802 80.501 130.175C79.942 130.548 79.4074 130.734 78.897 130.734C77.6171 130.734 77.0136 129.604 77.0865 127.344C76.2765 128.502 75.5271 129.357 74.8386 129.908C74.1581 130.458 73.4534 130.734 72.7243 130.734C72.0114 130.734 71.4039 130.402 70.9016 129.737C70.4075 129.065 70.1604 128.243 70.1604 127.271C70.1604 126.056 70.4925 124.897 71.1568 123.796C71.8292 122.694 72.6878 121.803 73.7328 121.122C74.7778 120.442 75.7013 120.102 76.5033 120.102C77.5159 120.102 78.2247 120.567 78.6297 121.499L81.1085 120.126H81.789L80.7197 123.686C80.1689 125.477 79.8934 126.704 79.8934 127.368C79.8934 128.065 80.1405 128.413 80.6347 128.413C80.9506 128.413 81.2989 128.247 81.6797 127.915C82.0604 127.575 82.595 127.06 83.2836 126.372V127.769ZM74.389 128.437C75.1991 128.437 75.9605 127.749 76.6734 126.372C77.3944 124.986 77.7548 123.711 77.7548 122.544C77.7548 122.09 77.6536 121.738 77.4511 121.487C77.2485 121.228 76.9772 121.098 76.6369 121.098C75.8269 121.098 75.0573 121.787 74.3282 123.164C73.6073 124.541 73.2468 125.809 73.2468 126.967C73.2468 127.404 73.3521 127.761 73.5627 128.036C73.7814 128.304 74.0569 128.437 74.389 128.437ZM92.3726 127.769C90.3393 129.762 88.7718 130.758 87.6701 130.758C87.176 130.758 86.7588 130.552 86.4186 130.138C86.0783 129.717 85.9082 129.199 85.9082 128.583C85.9082 127.441 86.5198 125.91 87.743 123.99C87.1436 124.298 86.4874 124.513 85.7746 124.634C85.248 125.606 84.4217 126.651 83.2957 127.769H83.0163V126.675C83.6481 126.019 84.2192 125.314 84.7296 124.561C84.0329 124.253 83.6846 123.796 83.6846 123.188C83.6846 122.564 83.8952 121.9 84.3164 121.195C84.7458 120.482 85.3331 120.126 86.0783 120.126C86.7102 120.126 87.0261 120.45 87.0261 121.098C87.0261 121.608 86.8439 122.337 86.4793 123.285C87.8241 123.139 88.9987 122.111 90.0032 120.199L91.1089 120.15L89.9788 123.261C89.509 124.573 89.2052 125.468 89.0675 125.946C88.9298 126.416 88.8609 126.833 88.8609 127.198C88.8609 127.538 88.9379 127.81 89.0918 128.012C89.2538 128.215 89.4685 128.316 89.7358 128.316C90.0275 128.316 90.3069 128.219 90.5743 128.024C90.8416 127.822 91.441 127.271 92.3726 126.372V127.769ZM118.558 127.769C117.61 128.79 116.764 129.539 116.019 130.017C115.273 130.495 114.52 130.734 113.759 130.734C112.965 130.734 112.325 130.475 111.839 129.956C111.361 129.438 111.122 128.757 111.122 127.915C111.122 127.413 111.235 126.72 111.462 125.837C111.697 124.954 111.814 124.278 111.814 123.808C111.814 123.054 111.567 122.666 111.073 122.641C110.773 122.617 110.624 122.475 110.624 122.216C110.624 121.738 110.798 121.499 111.146 121.499L111.96 121.548C112.722 121.548 113.325 121.175 113.771 120.43C114.224 119.684 114.451 118.785 114.451 117.732C114.451 115.278 113.058 114.05 110.271 114.05C108.497 114.05 106.922 114.532 105.544 115.496C104.167 116.452 103.479 117.522 103.479 118.704C103.479 119.377 103.811 119.883 104.475 120.223C104.791 120.385 104.949 120.584 104.949 120.819C104.949 121.029 104.641 121.272 104.026 121.548C103.41 121.815 102.989 121.949 102.762 121.949C102.405 121.949 102.081 121.718 101.79 121.256C101.506 120.786 101.364 120.252 101.364 119.652C101.364 117.854 102.276 116.315 104.098 115.035C105.921 113.755 108.145 113.115 110.769 113.115C112.973 113.115 114.686 113.589 115.909 114.536C117.141 115.484 117.756 116.635 117.756 117.987C117.756 118.838 117.416 119.664 116.736 120.466C116.063 121.268 114.739 121.892 112.762 122.337C113.483 122.751 114.006 123.2 114.33 123.686C114.662 124.164 114.828 124.768 114.828 125.497C114.828 125.902 114.783 126.355 114.694 126.858C114.613 127.36 114.573 127.68 114.573 127.818C114.573 128.514 114.848 128.863 115.399 128.863C116.136 128.863 117.189 128.032 118.558 126.372V127.769ZM112.313 116.14C111.648 116.683 111.203 117.262 110.976 117.878C110.749 118.494 110.522 119.628 110.295 121.28C110.069 122.925 109.809 124.237 109.518 125.217C109.234 126.189 108.736 127.109 108.023 127.976C107.31 128.842 106.448 129.519 105.435 130.005C104.431 130.491 103.39 130.734 102.312 130.734C101.146 130.734 100.271 130.454 99.6876 129.895C99.1124 129.328 98.8248 128.676 98.8248 127.939C98.8248 127.704 98.914 127.494 99.0922 127.307C99.2785 127.121 99.6552 126.866 100.222 126.542C100.789 126.218 101.178 126.056 101.389 126.056C101.656 126.056 101.79 126.21 101.79 126.517C101.79 126.59 101.745 126.866 101.656 127.344C101.575 127.822 101.535 128.105 101.535 128.194C101.535 128.648 101.664 129.025 101.923 129.324C102.183 129.616 102.511 129.762 102.908 129.762C103.75 129.762 104.495 129.227 105.143 128.158C105.791 127.089 106.245 125.513 106.504 123.431C106.772 121.341 107.12 119.826 107.549 118.887C107.979 117.939 108.602 117.177 109.421 116.602C110.247 116.019 110.988 115.727 111.644 115.727C111.831 115.727 112.053 115.865 112.313 116.14ZM131.523 127.769C130.454 128.782 129.559 129.531 128.838 130.017C128.117 130.495 127.469 130.734 126.894 130.734C126.254 130.734 125.76 130.479 125.411 129.968C125.071 129.458 124.901 128.765 124.901 127.891C124.01 128.871 123.212 129.596 122.507 130.066C121.803 130.527 121.114 130.758 120.442 130.758C119.826 130.758 119.332 130.503 118.959 129.993C118.587 129.482 118.4 128.79 118.4 127.915C118.4 126.23 118.967 123.856 120.101 120.794L123.334 120.15C122.005 124.031 121.341 126.522 121.341 127.623C121.341 128.401 121.632 128.79 122.216 128.79C122.637 128.79 123.159 128.449 123.783 127.769C124.407 127.08 124.796 126.481 124.95 125.971L126.542 120.794L129.847 120.126C129.085 122.564 128.563 124.278 128.279 125.266C127.996 126.254 127.854 126.947 127.854 127.344C127.854 128.105 128.113 128.486 128.631 128.486C129.053 128.486 129.676 128.101 130.503 127.332L131.523 126.372V127.769ZM135.266 120.648C135.825 120.503 136.388 120.385 136.955 120.296C137.522 120.199 137.862 120.15 137.976 120.15C138.057 120.15 138.097 120.183 138.097 120.247C138.097 120.369 138.065 120.495 138 120.624C137.87 120.997 137.806 121.353 137.806 121.693C137.806 122.115 138.049 122.69 138.535 123.419C139.021 124.148 139.264 124.824 139.264 125.448C139.264 126.688 138.668 127.882 137.477 129.033C136.295 130.183 135.068 130.758 133.796 130.758C133.245 130.758 132.743 130.612 132.289 130.321C131.835 130.029 131.609 129.717 131.609 129.385C131.609 129.191 131.831 128.822 132.277 128.279C132.73 127.737 133.054 127.465 133.249 127.465C133.508 127.465 133.739 127.797 133.942 128.462C134.144 129.126 134.492 129.458 134.987 129.458C135.481 129.458 135.942 129.231 136.372 128.778C136.809 128.316 137.028 127.822 137.028 127.295C137.028 126.785 136.752 126.104 136.202 125.254C135.651 124.403 135.286 123.69 135.108 123.115C134.168 124.63 132.978 126.181 131.536 127.769H131.256V126.675C133.241 124.561 134.577 122.552 135.266 120.648ZM153.566 127.769C151.646 129.762 150.066 130.758 148.827 130.758C148.276 130.758 147.818 130.572 147.454 130.199C147.097 129.818 146.919 129.341 146.919 128.765C146.919 127.793 147.292 126.424 148.037 124.658C148.434 123.702 148.632 123.079 148.632 122.787C148.632 122.455 148.474 122.289 148.158 122.289C147.834 122.289 147.364 122.512 146.749 122.957C146.133 123.395 145.485 123.994 144.805 124.756C144.521 126.246 144.379 128.036 144.379 130.126L141.67 130.758C141.564 129.908 141.512 128.984 141.512 127.988C141.512 125.574 141.844 123.326 142.508 121.244C143.172 119.162 144.217 116.955 145.643 114.622C146.704 114.192 147.628 113.844 148.413 113.577C149.207 113.301 149.661 113.163 149.774 113.163C149.985 113.163 150.163 113.334 150.309 113.674C150.455 114.014 150.528 114.439 150.528 114.95C150.528 115.808 150.264 116.76 149.738 117.805C149.211 118.842 148.385 120.098 147.259 121.572C148.337 120.948 149.053 120.555 149.41 120.393C149.766 120.231 150.131 120.15 150.503 120.15C150.917 120.15 151.249 120.3 151.5 120.6C151.759 120.891 151.889 121.28 151.889 121.766C151.889 122.495 151.597 123.625 151.014 125.157C150.439 126.688 150.151 127.648 150.151 128.036C150.151 128.215 150.204 128.373 150.309 128.51C150.422 128.648 150.552 128.717 150.698 128.717C151.216 128.717 152.172 127.935 153.566 126.372V127.769ZM145.145 122.787C148.037 119.425 149.483 116.946 149.483 115.351C149.483 114.865 149.349 114.622 149.082 114.622C148.636 114.622 148 115.419 147.174 117.015C146.348 118.611 145.671 120.535 145.145 122.787Z" fill="black"/>
<path d="M31.798 141.709H74.6563" stroke="black" stroke-width="1.38252" stroke-linecap="round"/>
<path d="M109.911 141.709H152.769" stroke="black" stroke-width="1.38252" stroke-linecap="round"/>
<path d="M81.0388 145.097C80.7743 145.097 80.5226 145.058 80.2839 144.981C80.0517 144.897 79.8452 144.781 79.6646 144.632C79.4839 144.477 79.3452 144.3 79.2484 144.1H79.4033V145H78.6484V143.142H79.3355C79.3807 143.394 79.471 143.616 79.6065 143.81C79.7484 144.003 79.9323 144.158 80.1581 144.274C80.3839 144.384 80.6452 144.439 80.942 144.439C81.2388 144.439 81.4711 144.368 81.6388 144.226C81.813 144.084 81.9001 143.881 81.9001 143.616C81.9001 143.403 81.8614 143.239 81.784 143.123C81.7065 143 81.5807 142.903 81.4065 142.832C81.2323 142.761 80.9969 142.703 80.7001 142.658L80.3614 142.59C79.8194 142.493 79.3904 142.313 79.0742 142.048C78.7645 141.784 78.6097 141.416 78.6097 140.945C78.6097 140.622 78.6807 140.348 78.8226 140.122C78.971 139.89 79.1775 139.713 79.442 139.59C79.7065 139.468 80.0162 139.406 80.371 139.406C80.7646 139.406 81.1098 139.49 81.4065 139.658C81.7033 139.819 81.9162 140.045 82.0453 140.335H81.842V139.513H82.5679V141.081H81.9001C81.8614 140.932 81.7936 140.781 81.6969 140.626C81.6065 140.464 81.4678 140.332 81.2807 140.229C81.0936 140.119 80.8356 140.064 80.5065 140.064C80.2097 140.064 79.9775 140.135 79.8097 140.277C79.6484 140.419 79.5678 140.603 79.5678 140.829C79.5678 141.081 79.6613 141.274 79.8484 141.41C80.042 141.545 80.3259 141.648 80.7001 141.719L80.9517 141.768C81.3775 141.839 81.7291 141.939 82.0066 142.068C82.284 142.197 82.4904 142.374 82.6259 142.6C82.7614 142.819 82.8292 143.103 82.8292 143.452C82.8292 143.761 82.7582 144.039 82.6163 144.284C82.4743 144.529 82.2711 144.726 82.0066 144.874C81.742 145.023 81.4194 145.097 81.0388 145.097ZM84.8326 145V144.361H85.5487V140.151H84.1939V141.458H83.4777V139.513H88.6166V141.458H87.9004V140.151H86.5649V144.361H87.281V145H84.8326ZM92.3234 145.106C91.8653 145.106 91.4492 145.035 91.075 144.894C90.7072 144.745 90.3911 144.542 90.1266 144.284C89.8685 144.019 89.6685 143.716 89.5266 143.374C89.3846 143.032 89.3137 142.664 89.3137 142.271C89.3137 141.877 89.3846 141.51 89.5266 141.168C89.6685 140.819 89.8685 140.516 90.1266 140.258C90.3911 139.993 90.7072 139.787 91.075 139.639C91.4492 139.49 91.8653 139.416 92.3234 139.416C92.775 139.416 93.1847 139.49 93.5525 139.639C93.9267 139.787 94.246 139.993 94.5106 140.258C94.7751 140.516 94.9783 140.819 95.1203 141.168C95.2622 141.51 95.3332 141.877 95.3332 142.271C95.3332 142.664 95.2622 143.032 95.1203 143.374C94.9783 143.716 94.7751 144.019 94.5106 144.284C94.246 144.542 93.9299 144.745 93.5622 144.894C93.1944 145.035 92.7815 145.106 92.3234 145.106ZM92.3234 144.381C92.6202 144.381 92.8879 144.326 93.1267 144.216C93.3718 144.106 93.5783 143.955 93.746 143.761C93.9138 143.568 94.0396 143.345 94.1235 143.093C94.2138 142.835 94.2589 142.558 94.2589 142.261C94.2589 141.964 94.2138 141.687 94.1235 141.429C94.0396 141.171 93.9138 140.945 93.746 140.752C93.5783 140.558 93.3718 140.406 93.1267 140.297C92.8879 140.187 92.6202 140.132 92.3234 140.132C92.0137 140.132 91.7395 140.187 91.5008 140.297C91.2685 140.406 91.0685 140.561 90.9008 140.761C90.733 140.955 90.6072 141.181 90.5234 141.439C90.4395 141.697 90.3976 141.974 90.3976 142.271C90.3976 142.568 90.4395 142.845 90.5234 143.103C90.6072 143.355 90.733 143.577 90.9008 143.771C91.0685 143.964 91.2685 144.116 91.5008 144.226C91.7395 144.329 92.0137 144.381 92.3234 144.381ZM96.1738 145V144.361H96.8803V140.151H96.1738V139.513H99.1739C99.5739 139.513 99.9223 139.568 100.219 139.677C100.516 139.781 100.745 139.942 100.906 140.161C101.074 140.381 101.158 140.661 101.158 141.003C101.158 141.255 101.109 141.481 101.013 141.681C100.922 141.874 100.777 142.039 100.577 142.174C100.384 142.303 100.132 142.397 99.8223 142.455L100.984 144.352H101.719V145H100.258L98.8449 142.561H98.2449V141.903H99.0578C99.3352 141.903 99.5513 141.861 99.7062 141.777C99.861 141.687 99.9707 141.574 100.035 141.439C100.1 141.297 100.132 141.148 100.132 140.993C100.132 140.839 100.097 140.7 100.026 140.577C99.9546 140.448 99.8481 140.345 99.7062 140.268C99.5643 140.19 99.3836 140.151 99.1642 140.151H97.8965V144.361H98.5933V145H96.1738ZM102.383 145V144.361H103.09V140.151H102.383V139.513H107.28V141.216H106.554V140.151H104.106V141.845H105.577V141.235H106.09V143.113H105.577V142.484H104.106V144.352H106.603V143.248H107.319V145H102.383Z" fill="black"/>
<defs>
<filter id="filter0_i_20_87" x="24.086" y="43.7912" width="81.8277" height="45.3677" filterUnits="userSpaceOnUse" color-interpolation-filters="sRGB">
<feFlood flood-opacity="0" result="BackgroundImageFix"/>
<feBlend mode="normal" in="SourceGraphic" in2="BackgroundImageFix" result="shape"/>
<feColorMatrix in="SourceAlpha" type="matrix" values="0 0 0 0 0 0 0 0 0 0 0 0 0 0 0 0 0 0 127 0" result="hardAlpha"/>
<feOffset dx="3.74826" dy="-3.74826"/>
<feGaussianBlur stdDeviation="2.34266"/>
<feComposite in2="hardAlpha" operator="arithmetic" k2="-1" k3="1"/>
<feColorMatrix type="matrix" values="0 0 0 0 0.0875 0 0 0 0 0.0838542 0 0 0 0 0.0838542 0 0 0 0.08 0"/>
<feBlend mode="normal" in2="shape" result="effect1_innerShadow_20_87"/>
</filter>
<filter id="filter1_ii_20_87" x="19.9083" y="41.5906" width="80.5479" height="40.7491" filterUnits="userSpaceOnUse" color-interpolation-filters="sRGB">
<feFlood flood-opacity="0" result="BackgroundImageFix"/>
<feBlend mode="normal" in="SourceGraphic" in2="BackgroundImageFix" result="shape"/>
<feColorMatrix in="SourceAlpha" type="matrix" values="0 0 0 0 0 0 0 0 0 0 0 0 0 0 0 0 0 0 127 0" result="hardAlpha"/>
<feOffset dy="1.87413"/>
<feGaussianBlur stdDeviation="1.4056"/>
<feComposite in2="hardAlpha" operator="arithmetic" k2="-1" k3="1"/>
<feColorMatrix type="matrix" values="0 0 0 0 0 0 0 0 0 0 0 0 0 0 0 0 0 0 0.25 0"/>
<feBlend mode="normal" in2="shape" result="effect1_innerShadow_20_87"/>
<feColorMatrix in="SourceAlpha" type="matrix" values="0 0 0 0 0 0 0 0 0 0 0 0 0 0 0 0 0 0 127 0" result="hardAlpha"/>
<feOffset dy="1.87413"/>
<feGaussianBlur stdDeviation="0.937066"/>
<feComposite in2="hardAlpha" operator="arithmetic" k2="-1" k3="1"/>
<feColorMatrix type="matrix" values="0 0 0 0 0 0 0 0 0 0 0 0 0 0 0 0 0 0 0.14 0"/>
<feBlend mode="normal" in2="effect1_innerShadow_20_87" result="effect2_innerShadow_20_87"/>
</filter>
<filter id="filter2_ii_20_87" x="17.3976" y="31.7204" width="81.8088" height="42.131" filterUnits="userSpaceOnUse" color-interpolation-filters="sRGB">
<feFlood flood-opacity="0" result="BackgroundImageFix"/>
<feBlend mode="normal" in="SourceGraphic" in2="BackgroundImageFix" result="shape"/>
<feColorMatrix in="SourceAlpha" type="matrix" values="0 0 0 0 0 0 0 0 0 0 0 0 0 0 0 0 0 0 127 0" result="hardAlpha"/>
<feOffset dx="1.87413" dy="-1.87413"/>
<feGaussianBlur stdDeviation="2.34266"/>
<feComposite in2="hardAlpha" operator="arithmetic" k2="-1" k3="1"/>
<feColorMatrix type="matrix" values="0 0 0 0 1 0 0 0 0 1 0 0 0 0 1 0 0 0 0.38 0"/>
<feBlend mode="normal" in2="shape" result="effect1_innerShadow_20_87"/>
<feColorMatrix in="SourceAlpha" type="matrix" values="0 0 0 0 0 0 0 0 0 0 0 0 0 0 0 0 0 0 127 0" result="hardAlpha"/>
<feOffset dx="-1.87413" dy="1.87413"/>
<feGaussianBlur stdDeviation="2.34266"/>
<feComposite in2="hardAlpha" operator="arithmetic" k2="-1" k3="1"/>
<feColorMatrix type="matrix" values="0 0 0 0 1 0 0 0 0 1 0 0 0 0 1 0 0 0 0.25 0"/>
<feBlend mode="normal" in2="effect1_innerShadow_20_87" result="effect2_innerShadow_20_87"/>
</filter>
<filter id="filter3_i_20_87" x="74.794" y="25.1578" width="80.0737" height="47.7379" filterUnits="userSpaceOnUse" color-interpolation-filters="sRGB">
<feFlood flood-opacity="0" result="BackgroundImageFix"/>
<feBlend mode="normal" in="SourceGraphic" in2="BackgroundImageFix" result="shape"/>
<feColorMatrix in="SourceAlpha" type="matrix" values="0 0 0 0 0 0 0 0 0 0 0 0 0 0 0 0 0 0 127 0" result="hardAlpha"/>
<feOffset dx="3.74826" dy="-3.74826"/>
<feGaussianBlur stdDeviation="2.34267"/>
<feComposite in2="hardAlpha" operator="arithmetic" k2="-1" k3="1"/>
<feColorMatrix type="matrix" values="0 0 0 0 0.0875 0 0 0 0 0.0838542 0 0 0 0 0.0838542 0 0 0 0.08 0"/>
<feBlend mode="normal" in2="shape" result="effect1_innerShadow_20_87"/>
</filter>
<filter id="filter4_ii_20_87" x="76.6559" y="21.369" width="77.4283" height="46.1136" filterUnits="userSpaceOnUse" color-interpolation-filters="sRGB">
<feFlood flood-opacity="0" result="BackgroundImageFix"/>
<feBlend mode="normal" in="SourceGraphic" in2="BackgroundImageFix" result="shape"/>
<feColorMatrix in="SourceAlpha" type="matrix" values="0 0 0 0 0 0 0 0 0 0 0 0 0 0 0 0 0 0 127 0" result="hardAlpha"/>
<feOffset dy="1.87413"/>
<feGaussianBlur stdDeviation="1.4056"/>
<feComposite in2="hardAlpha" operator="arithmetic" k2="-1" k3="1"/>
<feColorMatrix type="matrix" values="0 0 0 0 0 0 0 0 0 0 0 0 0 0 0 0 0 0 0.25 0"/>
<feBlend mode="normal" in2="shape" result="effect1_innerShadow_20_87"/>
<feColorMatrix in="SourceAlpha" type="matrix" values="0 0 0 0 0 0 0 0 0 0 0 0 0 0 0 0 0 0 127 0" result="hardAlpha"/>
<feOffset dy="1.87413"/>
<feGaussianBlur stdDeviation="0.937066"/>
<feComposite in2="hardAlpha" operator="arithmetic" k2="-1" k3="1"/>
<feColorMatrix type="matrix" values="0 0 0 0 0 0 0 0 0 0 0 0 0 0 0 0 0 0 0.14 0"/>
<feBlend mode="normal" in2="effect1_innerShadow_20_87" result="effect2_innerShadow_20_87"/>
</filter>
<filter id="filter5_ii_20_87" x="78.8382" y="13.379" width="79.8766" height="45.9927" filterUnits="userSpaceOnUse" color-interpolation-filters="sRGB">
<feFlood flood-opacity="0" result="BackgroundImageFix"/>
<feBlend mode="normal" in="SourceGraphic" in2="BackgroundImageFix" result="shape"/>
<feColorMatrix in="SourceAlpha" type="matrix" values="0 0 0 0 0 0 0 0 0 0 0 0 0 0 0 0 0 0 127 0" result="hardAlpha"/>
<feOffset dx="1.87413" dy="-1.87413"/>
<feGaussianBlur stdDeviation="2.34267"/>
<feComposite in2="hardAlpha" operator="arithmetic" k2="-1" k3="1"/>
<feColorMatrix type="matrix" values="0 0 0 0 1 0 0 0 0 1 0 0 0 0 1 0 0 0 0.38 0"/>
<feBlend mode="normal" in2="shape" result="effect1_innerShadow_20_87"/>
<feColorMatrix in="SourceAlpha" type="matrix" values="0 0 0 0 0 0 0 0 0 0 0 0 0 0 0 0 0 0 127 0" result="hardAlpha"/>
<feOffset dx="-1.87413" dy="1.87413"/>
<feGaussianBlur stdDeviation="2.34267"/>
<feComposite in2="hardAlpha" operator="arithmetic" k2="-1" k3="1"/>
<feColorMatrix type="matrix" values="0 0 0 0 1 0 0 0 0 1 0 0 0 0 1 0 0 0 0.25 0"/>
<feBlend mode="normal" in2="effect1_innerShadow_20_87" result="effect2_innerShadow_20_87"/>
</filter>
<filter id="filter6_i_20_87" x="80.6758" y="69.87" width="85.7695" height="37.076" filterUnits="userSpaceOnUse" color-interpolation-filters="sRGB">
<feFlood flood-opacity="0" result="BackgroundImageFix"/>
<feBlend mode="normal" in="SourceGraphic" in2="BackgroundImageFix" result="shape"/>
<feColorMatrix in="SourceAlpha" type="matrix" values="0 0 0 0 0 0 0 0 0 0 0 0 0 0 0 0 0 0 127 0" result="hardAlpha"/>
<feOffset dx="3.74826" dy="-3.74826"/>
<feGaussianBlur stdDeviation="2.34267"/>
<feComposite in2="hardAlpha" operator="arithmetic" k2="-1" k3="1"/>
<feColorMatrix type="matrix" values="0 0 0 0 0.0875 0 0 0 0 0.0838542 0 0 0 0 0.0838542 0 0 0 0.08 0"/>
<feBlend mode="normal" in2="shape" result="effect1_innerShadow_20_87"/>
</filter>
<filter id="filter7_ii_20_87" x="80.236" y="65.0504" width="83.9445" height="32.9733" filterUnits="userSpaceOnUse" color-interpolation-filters="sRGB">
<feFlood flood-opacity="0" result="BackgroundImageFix"/>
<feBlend mode="normal" in="SourceGraphic" in2="BackgroundImageFix" result="shape"/>
<feColorMatrix in="SourceAlpha" type="matrix" values="0 0 0 0 0 0 0 0 0 0 0 0 0 0 0 0 0 0 127 0" result="hardAlpha"/>
<feOffset dy="1.87413"/>
<feGaussianBlur stdDeviation="1.4056"/>
<feComposite in2="hardAlpha" operator="arithmetic" k2="-1" k3="1"/>
<feColorMatrix type="matrix" values="0 0 0 0 0 0 0 0 0 0 0 0 0 0 0 0 0 0 0.25 0"/>
<feBlend mode="normal" in2="shape" result="effect1_innerShadow_20_87"/>
<feColorMatrix in="SourceAlpha" type="matrix" values="0 0 0 0 0 0 0 0 0 0 0 0 0 0 0 0 0 0 127 0" result="hardAlpha"/>
<feOffset dy="1.87413"/>
<feGaussianBlur stdDeviation="0.937066"/>
<feComposite in2="hardAlpha" operator="arithmetic" k2="-1" k3="1"/>
<feColorMatrix type="matrix" values="0 0 0 0 0 0 0 0 0 0 0 0 0 0 0 0 0 0 0.14 0"/>
<feBlend mode="normal" in2="effect1_innerShadow_20_87" result="effect2_innerShadow_20_87"/>
</filter>
<filter id="filter8_ii_20_87" x="81.0058" y="55.4379" width="85.7489" height="33.9344" filterUnits="userSpaceOnUse" color-interpolation-filters="sRGB">
<feFlood flood-opacity="0" result="BackgroundImageFix"/>
<feBlend mode="normal" in="SourceGraphic" in2="BackgroundImageFix" result="shape"/>
<feColorMatrix in="SourceAlpha" type="matrix" values="0 0 0 0 0 0 0 0 0 0 0 0 0 0 0 0 0 0 127 0" result="hardAlpha"/>
<feOffset dx="1.87413" dy="-1.87413"/>
<feGaussianBlur stdDeviation="2.34267"/>
<feComposite in2="hardAlpha" operator="arithmetic" k2="-1" k3="1"/>
<feColorMatrix type="matrix" values="0 0 0 0 1 0 0 0 0 1 0 0 0 0 1 0 0 0 0.38 0"/>
<feBlend mode="normal" in2="shape" result="effect1_innerShadow_20_87"/>
<feColorMatrix in="SourceAlpha" type="matrix" values="0 0 0 0 0 0 0 0 0 0 0 0 0 0 0 0 0 0 127 0" result="hardAlpha"/>
<feOffset dx="-1.87413" dy="1.87413"/>
<feGaussianBlur stdDeviation="2.34267"/>
<feComposite in2="hardAlpha" operator="arithmetic" k2="-1" k3="1"/>
<feColorMatrix type="matrix" values="0 0 0 0 1 0 0 0 0 1 0 0 0 0 1 0 0 0 0.25 0"/>
<feBlend mode="normal" in2="effect1_innerShadow_20_87" result="effect2_innerShadow_20_87"/>
</filter>
</defs>
</svg>
