<svg width="179" height="133" viewBox="0 0 179 133" fill="none" xmlns="http://www.w3.org/2000/svg">
<g filter="url(#filter0_i_22_127)">
<path d="M101.869 51.4355C104.255 57.7261 92.2429 77.043 65.6181 85.3068C44.2061 93.4284 26.7154 87.137 24.3294 80.8465C21.9434 74.5559 37.3671 62.8726 58.7791 54.751C80.1912 46.6294 99.4833 45.145 101.869 51.4355Z" fill="#FFDB95"/>
</g>
<g filter="url(#filter1_ii_22_127)">
<path d="M38.157 63.5254L28.6289 75.1015C27.4778 76.5001 27.6784 78.567 29.0769 79.7181C30.4754 80.8692 32.5423 80.6686 33.6934 79.2701L43.2216 67.694C44.3727 66.2954 44.1721 64.2285 42.7736 63.0774C41.375 61.9263 39.3081 62.1269 38.157 63.5254Z" fill="white"/>
<path d="M33.5115 62.2258L23.9834 73.8019C22.8323 75.2005 23.0328 77.2674 24.4314 78.4185C25.8299 79.5696 27.8968 79.369 29.0479 77.9705L38.5761 66.3944C39.7272 64.9958 39.5266 62.9289 38.1281 61.7778C36.7295 60.6267 34.6626 60.8273 33.5115 62.2258Z" fill="white"/>
<path d="M30.184 59.5937L20.6559 71.1698C19.5048 72.5684 19.7053 74.6353 21.1039 75.7864C22.5024 76.9375 24.5693 76.7369 25.7204 75.3384L35.2485 63.7623C36.3997 62.3637 36.1991 60.2968 34.8005 59.1457C33.402 57.9946 31.3351 58.1952 30.184 59.5937Z" fill="white"/>
<path d="M42.3338 60.9207L37.5256 75.1219C36.9447 76.8376 37.8646 78.6993 39.5803 79.2802C41.296 79.8611 43.1577 78.9411 43.7386 77.2255L48.5468 63.0243C49.1276 61.3086 48.2077 59.4469 46.492 58.866C44.7764 58.2851 42.9146 59.2051 42.3338 60.9207Z" fill="white"/>
<path d="M47.6309 60.2288L42.8227 74.43C42.2418 76.1457 43.1618 78.0074 44.8774 78.5883C46.5931 79.1692 48.4548 78.2492 49.0357 76.5336L53.8439 62.3324C54.4248 60.6167 53.5048 58.755 51.7892 58.1741C50.0735 57.5932 48.2118 58.5132 47.6309 60.2288Z" fill="white"/>
<path d="M49.7593 58.9959L48.3856 73.9259C48.2197 75.7296 49.5473 77.3263 51.3511 77.4923C53.1548 77.6582 54.7515 76.3306 54.9175 74.5268L56.2911 59.5968C56.4571 57.7931 55.1294 56.1964 53.3257 56.0304C51.5219 55.8645 49.9252 57.1922 49.7593 58.9959Z" fill="white"/>
<path d="M33.8716 61.7339L32.498 76.6639C32.332 78.4676 33.6597 80.0643 35.4634 80.2303C37.2672 80.3962 38.8639 79.0686 39.0299 77.2648L40.4035 62.3348C40.5694 60.5311 39.2418 58.9344 37.438 58.7684C35.6343 58.6025 34.0376 59.9302 33.8716 61.7339Z" fill="white"/>
<path d="M52.5934 57.9868L53.5565 72.9488C53.6729 74.7565 55.2326 76.1275 57.0402 76.0111C58.8478 75.8948 60.2188 74.3351 60.1024 72.5275L59.1393 57.5654C59.023 55.7578 57.4633 54.3868 55.6557 54.5031C53.8481 54.6195 52.4771 56.1792 52.5934 57.9868Z" fill="white"/>
<path d="M60.3426 55.6245L58.969 70.5545C58.803 72.3582 60.1307 73.9549 61.9345 74.1209C63.7382 74.2868 65.3349 72.9592 65.5009 71.1554L66.8745 56.2255C67.0405 54.4217 65.7128 52.825 63.9091 52.659C62.1053 52.4931 60.5086 53.8208 60.3426 55.6245Z" fill="white"/>
<path d="M65.6324 53.6075L64.2588 68.5375C64.0928 70.3412 65.4205 71.9379 67.2243 72.1039C69.028 72.2698 70.6247 70.9422 70.7907 69.1384L72.1643 54.2084C72.3303 52.4047 71.0026 50.808 69.1988 50.642C67.3951 50.4761 65.7984 51.8038 65.6324 53.6075Z" fill="white"/>
<path d="M70.9185 50.9278L69.5449 65.8578C69.3789 67.6615 70.7066 69.2582 72.5103 69.4242C74.314 69.5901 75.9108 68.2625 76.0767 66.4587L77.4504 51.5287C77.6163 49.725 76.2886 48.1283 74.4849 47.9623C72.6812 47.7964 71.0845 49.1241 70.9185 50.9278Z" fill="white"/>
<path d="M76.5378 48.5777L75.1641 63.5077C74.9982 65.3114 76.3259 66.9081 78.1296 67.0741C79.9333 67.24 81.5301 65.9124 81.696 64.1086L83.0696 49.1786C83.2356 47.3749 81.9079 45.7782 80.1042 45.6122C78.3005 45.4463 76.7037 46.774 76.5378 48.5777Z" fill="white"/>
<path d="M73.4478 59.7115L88.4097 60.6775C90.2173 60.7942 91.7772 59.4235 91.8939 57.6159C92.0106 55.8083 90.6399 54.2484 88.8323 54.1317L73.8704 53.1657C72.0628 53.049 70.5029 54.4197 70.3862 56.2273C70.2695 58.0349 71.6402 59.5948 73.4478 59.7115Z" fill="white"/>
<path d="M77.7382 56.7061L92.7001 57.6721C94.5077 57.7888 96.0676 56.4181 96.1843 54.6105C96.301 52.8029 94.9303 51.243 93.1227 51.1263L78.1608 50.1603C76.3532 50.0436 74.7933 51.4143 74.6766 53.2219C74.5599 55.0295 75.9306 56.5894 77.7382 56.7061Z" fill="white"/>
<path d="M80.7034 53.708L95.6653 54.674C97.4729 54.7907 99.0328 53.42 99.1495 51.6124C99.2662 49.8048 97.8955 48.2449 96.0879 48.1282L81.126 47.1622C79.3185 47.0455 77.7585 48.4162 77.6418 50.2238C77.5251 52.0314 78.8958 53.5913 80.7034 53.708Z" fill="white"/>
<path d="M82.0032 49.0624L96.9651 50.0284C98.7727 50.1451 100.333 48.7744 100.449 46.9668C100.566 45.1592 99.1953 43.5993 97.3877 43.4826L82.4258 42.5166C80.6183 42.3999 79.0583 43.7706 78.9416 45.5782C78.8249 47.3858 80.1956 48.9457 82.0032 49.0624Z" fill="white"/>
<path d="M69.1574 62.717L84.1193 63.683C85.9269 63.7997 87.4868 62.429 87.6035 60.6214C87.7202 58.8138 86.3495 57.2539 84.5419 57.1372L69.58 56.1712C67.7724 56.0545 66.2125 57.4252 66.0958 59.2328C65.9791 61.0404 67.3498 62.6003 69.1574 62.717Z" fill="white"/>
<path d="M64.7364 71.5823C86.1485 63.4607 101.572 51.7773 99.1861 45.4867C96.8001 39.1961 77.5079 40.6805 56.0958 48.8021C34.6838 56.9237 19.2601 68.6071 21.6461 74.8977C24.0322 81.1883 43.3243 79.7039 64.7364 71.5823Z" fill="white"/>
</g>
<g filter="url(#filter2_ii_22_127)">
<path d="M97.0889 38.6703C99.4749 44.9609 84.0513 56.6442 62.6392 64.7658C41.2272 72.8874 21.935 74.3718 19.549 68.0812C17.163 61.7907 30.369 47.4528 51.7811 39.3312C73.1931 31.2096 94.7029 32.3798 97.0889 38.6703Z" fill="#FFDB95"/>
</g>
<g filter="url(#filter3_i_22_127)">
<path d="M150.777 66.6138C147.982 72.7337 125.801 77.7765 101.203 64.6576C80.3718 55.1448 72.5455 38.2851 75.3402 32.1651C78.1349 26.0452 97.2876 28.7956 118.119 38.3083C138.95 47.821 153.572 60.4938 150.777 66.6138Z" fill="#F19D9D"/>
</g>
<g filter="url(#filter4_ii_22_127)">
<path d="M97.3789 29.8163L82.4482 31.1822C80.6443 31.3472 79.3158 32.9433 79.4809 34.7471C79.6459 36.5509 81.2419 37.8794 83.0457 37.7144L97.9764 36.3485C99.7802 36.1835 101.109 34.5875 100.944 32.7837C100.779 30.9798 99.1827 29.6513 97.3789 29.8163Z" fill="white"/>
<path d="M95.0361 25.5996L80.1054 26.9655C78.3016 27.1305 76.9731 28.7266 77.1381 30.5304C77.3032 32.3342 78.8992 33.6627 80.703 33.4977L95.6337 32.1318C97.4375 31.9668 98.766 30.3708 98.601 28.567C98.436 26.7631 96.84 25.4346 95.0361 25.5996Z" fill="white"/>
<path d="M94.5676 21.3828L79.6369 22.7487C77.8331 22.9137 76.5046 24.5098 76.6696 26.3136C76.8346 28.1174 78.4307 29.4459 80.2345 29.2809L95.1652 27.915C96.969 27.75 98.2975 26.154 98.1325 24.3502C97.9675 22.5463 96.3714 21.2178 94.5676 21.3828Z" fill="white"/>
<path d="M102.168 30.9543L88.6898 37.5219C87.0615 38.3154 86.3847 40.2786 87.1781 41.9069C87.9716 43.5352 89.9348 44.212 91.5631 43.4186L105.041 36.8509C106.669 36.0574 107.346 34.0942 106.553 32.4659C105.759 30.8376 103.796 30.1608 102.168 30.9543Z" fill="white"/>
<path d="M106.385 34.234L92.9066 40.8017C91.2783 41.5952 90.6015 43.5584 91.3949 45.1867C92.1884 46.815 94.1516 47.4918 95.7799 46.6984L109.258 40.1307C110.886 39.3372 111.563 37.374 110.77 35.7457C109.976 34.1174 108.013 33.4406 106.385 34.234Z" fill="white"/>
<path d="M108.758 34.8803L97.1769 44.4024C95.7778 45.5528 95.5761 47.6196 96.7265 49.0188C97.8769 50.4179 99.9437 50.6195 101.343 49.4692L112.924 39.9471C114.323 38.7967 114.525 36.7299 113.374 35.3307C112.224 33.9316 110.157 33.73 108.758 34.8803Z" fill="white"/>
<path d="M95.6392 25.5096L84.0581 35.0317C82.659 36.1821 82.4574 38.2489 83.6077 39.6481C84.7581 41.0472 86.8249 41.2488 88.2241 40.0985L99.8051 30.5764C101.204 29.426 101.406 27.3592 100.256 25.96C99.1051 24.5609 97.0383 24.3593 95.6392 25.5096Z" fill="white"/>
<path d="M111.469 36.1857L101.508 47.3918C100.305 48.7456 100.426 50.8186 101.78 52.022C103.134 53.2254 105.207 53.1034 106.411 51.7496L116.371 40.5435C117.575 39.1897 117.453 37.1167 116.099 35.9133C114.745 34.7099 112.672 34.8319 111.469 36.1857Z" fill="white"/>
<path d="M118.597 40.0341L107.016 49.5562C105.617 50.7066 105.416 52.7734 106.566 54.1726C107.716 55.5717 109.783 55.7733 111.182 54.623L122.763 45.1009C124.162 43.9505 124.364 41.8837 123.214 40.4845C122.063 39.0854 119.997 38.8838 118.597 40.0341Z" fill="white"/>
<path d="M123.751 42.3768L112.17 51.8989C110.771 53.0493 110.57 55.1161 111.72 56.5153C112.87 57.9144 114.937 58.116 116.336 56.9657L127.917 47.4436C129.316 46.2932 129.518 44.2264 128.368 42.8272C127.217 41.4281 125.151 41.2265 123.751 42.3768Z" fill="white"/>
<path d="M129.373 44.2509L117.792 53.773C116.393 54.9234 116.192 56.9902 117.342 58.3894C118.492 59.7885 120.559 59.9901 121.958 58.8398L133.539 49.3177C134.938 48.1673 135.14 46.1005 133.99 44.7013C132.839 43.3022 130.773 43.1006 129.373 44.2509Z" fill="white"/>
<path d="M134.996 46.5936L123.415 56.1157C122.016 57.2661 121.815 59.3329 122.965 60.7321C124.115 62.1312 126.182 62.3328 127.581 61.1825L139.162 51.6604C140.561 50.51 140.763 48.4432 139.613 47.044C138.462 45.6449 136.396 45.4433 134.996 46.5936Z" fill="white"/>
<path d="M124.907 52.2259L134.742 63.543C135.93 64.9102 138.001 65.0554 139.369 63.8673C140.736 62.6792 140.881 60.6077 139.693 59.2405L129.859 47.9233C128.67 46.5561 126.599 46.4109 125.232 47.599C123.864 48.7871 123.719 50.8586 124.907 52.2259Z" fill="white"/>
<path d="M130.06 53.1629L139.895 64.48C141.083 65.8472 143.154 65.9924 144.522 64.8043C145.889 63.6162 146.034 61.5447 144.846 60.1775L135.012 48.8603C133.823 47.4931 131.752 47.3479 130.385 48.536C129.017 49.7241 128.872 51.7956 130.06 53.1629Z" fill="white"/>
<path d="M134.277 53.1629L144.112 64.48C145.3 65.8472 147.371 65.9924 148.739 64.8043C150.106 63.6162 150.251 61.5447 149.063 60.1775L139.229 48.8603C138.04 47.4931 135.969 47.3479 134.602 48.536C133.234 49.7241 133.089 51.7956 134.277 53.1629Z" fill="white"/>
<path d="M138.494 50.8203L148.329 62.1374C149.517 63.5046 151.588 63.6499 152.956 62.4617C154.323 61.2736 154.468 59.2021 153.28 57.8348L143.446 46.5177C142.257 45.1505 140.186 45.0053 138.819 46.1934C137.451 47.3815 137.306 49.453 138.494 50.8203Z" fill="white"/>
<path d="M119.753 51.2888L129.588 62.6059C130.776 63.9731 132.847 64.1183 134.215 62.9302C135.582 61.7421 135.727 59.6706 134.539 58.3034L124.705 46.9862C123.516 45.619 121.445 45.4738 120.078 46.6619C118.71 47.85 118.565 49.9215 119.753 51.2888Z" fill="white"/>
<path d="M110.341 54.3797C131.172 63.8924 150.325 66.6428 153.119 60.5228C155.914 54.4028 141.293 41.73 120.461 32.2173C99.6299 22.7046 80.4772 19.9542 77.6825 26.0742C74.8878 32.1942 89.5094 44.867 110.341 54.3797Z" fill="white"/>
</g>
<g filter="url(#filter5_ii_22_127)">
<path d="M156.492 54.2385C153.697 60.3584 134.544 57.608 113.713 48.0953C92.8815 38.5825 78.26 25.9098 81.0547 19.7898C83.8494 13.6699 103.33 12.9769 124.161 22.4896C144.993 32.0023 159.286 48.1185 156.492 54.2385Z" fill="#F19D9D"/>
</g>
<g filter="url(#filter6_i_22_127)">
<path d="M162.652 93.7619C161.601 100.407 141.585 111.215 114.369 105.174C91.7499 101.597 79.6883 87.4544 80.7391 80.8091C81.7899 74.1638 100.979 71.6763 123.598 75.2531C146.218 78.8299 163.703 87.1166 162.652 93.7619Z" fill="#DDE7FF"/>
</g>
<g filter="url(#filter7_ii_22_127)">
<path d="M101.34 72.6352L87.3231 77.9557C85.6296 78.5985 84.7779 80.4924 85.4206 82.1859C86.0634 83.8793 87.9573 84.7311 89.6508 84.0883L103.668 78.7678C105.361 78.125 106.213 76.2311 105.57 74.5376C104.928 72.8442 103.034 71.9924 101.34 72.6352Z" fill="white"/>
<path d="M97.9525 69.2012L83.9353 74.5217C82.2418 75.1645 81.3901 77.0584 82.0329 78.7519C82.6757 80.4453 84.5696 81.2971 86.263 80.6543L100.28 75.3338C101.974 74.691 102.825 72.7971 102.183 71.1036C101.54 69.4102 99.646 68.5584 97.9525 69.2012Z" fill="white"/>
<path d="M96.37 65.2647L82.3528 70.5852C80.6593 71.228 79.8076 73.1219 80.4504 74.8154C81.0931 76.5088 82.987 77.3606 84.6805 76.7178L98.6978 71.3973C100.391 70.7545 101.243 68.8606 100.6 67.1671C99.9574 65.4737 98.0635 64.6219 96.37 65.2647Z" fill="white"/>
<path d="M106.259 72.447L95.0365 82.3891C93.6807 83.5902 93.5553 85.663 94.7564 87.0188C95.9576 88.3747 98.0304 88.5001 99.3862 87.299L110.609 77.3569C111.965 76.1558 112.09 74.0829 110.889 72.7271C109.688 71.3713 107.615 71.2459 106.259 72.447Z" fill="white"/>
<path d="M111.201 74.4755L99.9784 84.4176C98.6226 85.6187 98.4972 87.6915 99.6983 89.0473C100.899 90.4032 102.972 90.5286 104.328 89.3275L115.551 79.3854C116.907 78.1843 117.032 76.1114 115.831 74.7556C114.63 73.3998 112.557 73.2744 111.201 74.4755Z" fill="white"/>
<path d="M113.661 74.4615L105.058 86.741C104.019 88.2245 104.379 90.2696 105.862 91.3089C107.346 92.3483 109.391 91.9882 110.43 90.5047L119.033 78.2252C120.072 76.7417 119.712 74.6965 118.229 73.6572C116.745 72.6179 114.7 72.978 113.661 74.4615Z" fill="white"/>
<path d="M98.5093 68.9529L89.9066 81.2324C88.8672 82.7159 89.2273 84.761 90.7108 85.8003C92.1944 86.8397 94.2395 86.4796 95.2788 84.9961L103.882 72.7166C104.921 71.2331 104.561 69.1879 103.077 68.1486C101.594 67.1093 99.5486 67.4694 98.5093 68.9529Z" fill="white"/>
<path d="M116.623 74.9922L110.033 88.4593C109.236 90.0863 109.91 92.0506 111.537 92.8468C113.164 93.6429 115.128 92.9694 115.924 91.3424L122.514 77.8753C123.311 76.2483 122.637 74.284 121.01 73.4878C119.383 72.6917 117.419 73.3652 116.623 74.9922Z" fill="white"/>
<path d="M124.522 76.7875L115.919 89.067C114.88 90.5505 115.24 92.5956 116.723 93.6349C118.207 94.6743 120.252 94.3142 121.291 92.8307L129.894 80.5512C130.933 79.0677 130.573 77.0226 129.089 75.9832C127.606 74.9439 125.561 75.304 124.522 76.7875Z" fill="white"/>
<path d="M130.116 77.662L121.513 89.9415C120.474 91.425 120.834 93.4701 122.317 94.5094C123.801 95.5488 125.846 95.1887 126.885 93.7052L135.488 81.4257C136.527 79.9422 136.167 77.897 134.683 76.8577C133.2 75.8184 131.155 76.1785 130.116 77.662Z" fill="white"/>
<path d="M136.035 77.9594L127.432 90.2389C126.393 91.7224 126.753 93.7675 128.236 94.8068C129.72 95.8462 131.765 95.4861 132.804 94.0026L141.407 81.7231C142.446 80.2396 142.086 78.1945 140.602 77.1551C139.119 76.1158 137.074 76.4759 136.035 77.9594Z" fill="white"/>
<path d="M142.079 78.7082L133.476 90.9877C132.437 92.4712 132.797 94.5163 134.28 95.5556C135.764 96.595 137.809 96.2349 138.848 94.7514L147.451 82.4719C148.49 80.9884 148.13 78.9432 146.647 77.9039C145.163 76.8646 143.118 77.2247 142.079 78.7082Z" fill="white"/>
<path d="M133.87 86.8403L146.379 95.1048C147.891 96.1033 149.925 95.6875 150.924 94.1762C151.922 92.6649 151.507 90.6304 149.995 89.6319L137.486 81.3674C135.974 80.3689 133.94 80.7847 132.941 82.296C131.943 83.8073 132.359 85.8419 133.87 86.8403Z" fill="white"/>
<path d="M139.087 86.3606L151.597 94.6251C153.108 95.6236 155.142 95.2078 156.141 93.6965C157.139 92.1852 156.724 90.1507 155.212 89.1522L142.703 80.8877C141.191 79.8892 139.157 80.305 138.158 81.8163C137.16 83.3276 137.576 85.3622 139.087 86.3606Z" fill="white"/>
<path d="M143.149 85.2295L155.659 93.494C157.17 94.4925 159.204 94.0767 160.203 92.5654C161.201 91.0541 160.786 89.0196 159.274 88.0211L146.765 79.7566C145.253 78.7581 143.219 79.1739 142.22 80.6852C141.222 82.1965 141.638 84.2311 143.149 85.2295Z" fill="white"/>
<path d="M146.583 81.8417L159.093 90.1062C160.604 91.1047 162.638 90.6889 163.637 89.1776C164.635 87.6663 164.22 85.6318 162.708 84.6333L150.199 76.3688C148.687 75.3703 146.653 75.7861 145.654 77.2974C144.656 78.8087 145.072 80.8433 146.583 81.8417Z" fill="white"/>
<path d="M128.654 87.3198L141.164 95.5843C142.675 96.5828 144.709 96.167 145.708 94.6557C146.706 93.1444 146.291 91.1099 144.779 90.1114L132.27 81.8469C130.758 80.8484 128.724 81.2642 127.725 82.7755C126.727 84.2868 127.143 86.3214 128.654 87.3198Z" fill="white"/>
<path d="M120.416 92.8218C143.036 96.3986 162.224 93.9111 163.275 87.2658C164.326 80.6205 146.841 72.3338 124.222 68.757C101.602 65.1802 82.4135 67.6677 81.3627 74.313C80.3119 80.9583 97.7968 89.245 120.416 92.8218Z" fill="white"/>
</g>
<g filter="url(#filter8_ii_22_127)">
<path d="M164.837 80.3073C163.787 86.9526 144.598 89.4401 121.979 85.8633C99.359 82.2865 81.8741 73.9998 82.9249 67.3545C83.9757 60.7093 102.557 54.8166 125.176 58.3934C147.796 61.9702 165.888 73.662 164.837 80.3073Z" fill="#DDE7FF"/>
</g>
<defs>
<filter id="filter0_i_22_127" x="24.086" y="43.7912" width="81.8277" height="45.3677" filterUnits="userSpaceOnUse" color-interpolation-filters="sRGB">
<feFlood flood-opacity="0" result="BackgroundImageFix"/>
<feBlend mode="normal" in="SourceGraphic" in2="BackgroundImageFix" result="shape"/>
<feColorMatrix in="SourceAlpha" type="matrix" values="0 0 0 0 0 0 0 0 0 0 0 0 0 0 0 0 0 0 127 0" result="hardAlpha"/>
<feOffset dx="3.74826" dy="-3.74826"/>
<feGaussianBlur stdDeviation="2.34266"/>
<feComposite in2="hardAlpha" operator="arithmetic" k2="-1" k3="1"/>
<feColorMatrix type="matrix" values="0 0 0 0 0.0875 0 0 0 0 0.0838542 0 0 0 0 0.0838542 0 0 0 0.08 0"/>
<feBlend mode="normal" in2="shape" result="effect1_innerShadow_22_127"/>
</filter>
<filter id="filter1_ii_22_127" x="19.9083" y="41.5906" width="80.548" height="40.7491" filterUnits="userSpaceOnUse" color-interpolation-filters="sRGB">
<feFlood flood-opacity="0" result="BackgroundImageFix"/>
<feBlend mode="normal" in="SourceGraphic" in2="BackgroundImageFix" result="shape"/>
<feColorMatrix in="SourceAlpha" type="matrix" values="0 0 0 0 0 0 0 0 0 0 0 0 0 0 0 0 0 0 127 0" result="hardAlpha"/>
<feOffset dy="1.87413"/>
<feGaussianBlur stdDeviation="1.4056"/>
<feComposite in2="hardAlpha" operator="arithmetic" k2="-1" k3="1"/>
<feColorMatrix type="matrix" values="0 0 0 0 0 0 0 0 0 0 0 0 0 0 0 0 0 0 0.25 0"/>
<feBlend mode="normal" in2="shape" result="effect1_innerShadow_22_127"/>
<feColorMatrix in="SourceAlpha" type="matrix" values="0 0 0 0 0 0 0 0 0 0 0 0 0 0 0 0 0 0 127 0" result="hardAlpha"/>
<feOffset dy="1.87413"/>
<feGaussianBlur stdDeviation="0.937066"/>
<feComposite in2="hardAlpha" operator="arithmetic" k2="-1" k3="1"/>
<feColorMatrix type="matrix" values="0 0 0 0 0 0 0 0 0 0 0 0 0 0 0 0 0 0 0.14 0"/>
<feBlend mode="normal" in2="effect1_innerShadow_22_127" result="effect2_innerShadow_22_127"/>
</filter>
<filter id="filter2_ii_22_127" x="17.3976" y="31.7204" width="81.8088" height="42.131" filterUnits="userSpaceOnUse" color-interpolation-filters="sRGB">
<feFlood flood-opacity="0" result="BackgroundImageFix"/>
<feBlend mode="normal" in="SourceGraphic" in2="BackgroundImageFix" result="shape"/>
<feColorMatrix in="SourceAlpha" type="matrix" values="0 0 0 0 0 0 0 0 0 0 0 0 0 0 0 0 0 0 127 0" result="hardAlpha"/>
<feOffset dx="1.87413" dy="-1.87413"/>
<feGaussianBlur stdDeviation="2.34266"/>
<feComposite in2="hardAlpha" operator="arithmetic" k2="-1" k3="1"/>
<feColorMatrix type="matrix" values="0 0 0 0 1 0 0 0 0 1 0 0 0 0 1 0 0 0 0.38 0"/>
<feBlend mode="normal" in2="shape" result="effect1_innerShadow_22_127"/>
<feColorMatrix in="SourceAlpha" type="matrix" values="0 0 0 0 0 0 0 0 0 0 0 0 0 0 0 0 0 0 127 0" result="hardAlpha"/>
<feOffset dx="-1.87413" dy="1.87413"/>
<feGaussianBlur stdDeviation="2.34266"/>
<feComposite in2="hardAlpha" operator="arithmetic" k2="-1" k3="1"/>
<feColorMatrix type="matrix" values="0 0 0 0 1 0 0 0 0 1 0 0 0 0 1 0 0 0 0.25 0"/>
<feBlend mode="normal" in2="effect1_innerShadow_22_127" result="effect2_innerShadow_22_127"/>
</filter>
<filter id="filter3_i_22_127" x="74.794" y="25.1578" width="80.0737" height="47.7379" filterUnits="userSpaceOnUse" color-interpolation-filters="sRGB">
<feFlood flood-opacity="0" result="BackgroundImageFix"/>
<feBlend mode="normal" in="SourceGraphic" in2="BackgroundImageFix" result="shape"/>
<feColorMatrix in="SourceAlpha" type="matrix" values="0 0 0 0 0 0 0 0 0 0 0 0 0 0 0 0 0 0 127 0" result="hardAlpha"/>
<feOffset dx="3.74826" dy="-3.74826"/>
<feGaussianBlur stdDeviation="2.34267"/>
<feComposite in2="hardAlpha" operator="arithmetic" k2="-1" k3="1"/>
<feColorMatrix type="matrix" values="0 0 0 0 0.0875 0 0 0 0 0.0838542 0 0 0 0 0.0838542 0 0 0 0.08 0"/>
<feBlend mode="normal" in2="shape" result="effect1_innerShadow_22_127"/>
</filter>
<filter id="filter4_ii_22_127" x="76.6558" y="21.369" width="77.4283" height="46.1136" filterUnits="userSpaceOnUse" color-interpolation-filters="sRGB">
<feFlood flood-opacity="0" result="BackgroundImageFix"/>
<feBlend mode="normal" in="SourceGraphic" in2="BackgroundImageFix" result="shape"/>
<feColorMatrix in="SourceAlpha" type="matrix" values="0 0 0 0 0 0 0 0 0 0 0 0 0 0 0 0 0 0 127 0" result="hardAlpha"/>
<feOffset dy="1.87413"/>
<feGaussianBlur stdDeviation="1.4056"/>
<feComposite in2="hardAlpha" operator="arithmetic" k2="-1" k3="1"/>
<feColorMatrix type="matrix" values="0 0 0 0 0 0 0 0 0 0 0 0 0 0 0 0 0 0 0.25 0"/>
<feBlend mode="normal" in2="shape" result="effect1_innerShadow_22_127"/>
<feColorMatrix in="SourceAlpha" type="matrix" values="0 0 0 0 0 0 0 0 0 0 0 0 0 0 0 0 0 0 127 0" result="hardAlpha"/>
<feOffset dy="1.87413"/>
<feGaussianBlur stdDeviation="0.937066"/>
<feComposite in2="hardAlpha" operator="arithmetic" k2="-1" k3="1"/>
<feColorMatrix type="matrix" values="0 0 0 0 0 0 0 0 0 0 0 0 0 0 0 0 0 0 0.14 0"/>
<feBlend mode="normal" in2="effect1_innerShadow_22_127" result="effect2_innerShadow_22_127"/>
</filter>
<filter id="filter5_ii_22_127" x="78.8382" y="13.379" width="79.8766" height="45.9927" filterUnits="userSpaceOnUse" color-interpolation-filters="sRGB">
<feFlood flood-opacity="0" result="BackgroundImageFix"/>
<feBlend mode="normal" in="SourceGraphic" in2="BackgroundImageFix" result="shape"/>
<feColorMatrix in="SourceAlpha" type="matrix" values="0 0 0 0 0 0 0 0 0 0 0 0 0 0 0 0 0 0 127 0" result="hardAlpha"/>
<feOffset dx="1.87413" dy="-1.87413"/>
<feGaussianBlur stdDeviation="2.34267"/>
<feComposite in2="hardAlpha" operator="arithmetic" k2="-1" k3="1"/>
<feColorMatrix type="matrix" values="0 0 0 0 1 0 0 0 0 1 0 0 0 0 1 0 0 0 0.38 0"/>
<feBlend mode="normal" in2="shape" result="effect1_innerShadow_22_127"/>
<feColorMatrix in="SourceAlpha" type="matrix" values="0 0 0 0 0 0 0 0 0 0 0 0 0 0 0 0 0 0 127 0" result="hardAlpha"/>
<feOffset dx="-1.87413" dy="1.87413"/>
<feGaussianBlur stdDeviation="2.34267"/>
<feComposite in2="hardAlpha" operator="arithmetic" k2="-1" k3="1"/>
<feColorMatrix type="matrix" values="0 0 0 0 1 0 0 0 0 1 0 0 0 0 1 0 0 0 0.25 0"/>
<feBlend mode="normal" in2="effect1_innerShadow_22_127" result="effect2_innerShadow_22_127"/>
</filter>
<filter id="filter6_i_22_127" x="80.6758" y="69.87" width="85.7695" height="37.0761" filterUnits="userSpaceOnUse" color-interpolation-filters="sRGB">
<feFlood flood-opacity="0" result="BackgroundImageFix"/>
<feBlend mode="normal" in="SourceGraphic" in2="BackgroundImageFix" result="shape"/>
<feColorMatrix in="SourceAlpha" type="matrix" values="0 0 0 0 0 0 0 0 0 0 0 0 0 0 0 0 0 0 127 0" result="hardAlpha"/>
<feOffset dx="3.74826" dy="-3.74826"/>
<feGaussianBlur stdDeviation="2.34267"/>
<feComposite in2="hardAlpha" operator="arithmetic" k2="-1" k3="1"/>
<feColorMatrix type="matrix" values="0 0 0 0 0.0875 0 0 0 0 0.0838542 0 0 0 0 0.0838542 0 0 0 0.08 0"/>
<feBlend mode="normal" in2="shape" result="effect1_innerShadow_22_127"/>
</filter>
<filter id="filter7_ii_22_127" x="80.236" y="65.0504" width="83.9445" height="32.9733" filterUnits="userSpaceOnUse" color-interpolation-filters="sRGB">
<feFlood flood-opacity="0" result="BackgroundImageFix"/>
<feBlend mode="normal" in="SourceGraphic" in2="BackgroundImageFix" result="shape"/>
<feColorMatrix in="SourceAlpha" type="matrix" values="0 0 0 0 0 0 0 0 0 0 0 0 0 0 0 0 0 0 127 0" result="hardAlpha"/>
<feOffset dy="1.87413"/>
<feGaussianBlur stdDeviation="1.4056"/>
<feComposite in2="hardAlpha" operator="arithmetic" k2="-1" k3="1"/>
<feColorMatrix type="matrix" values="0 0 0 0 0 0 0 0 0 0 0 0 0 0 0 0 0 0 0.25 0"/>
<feBlend mode="normal" in2="shape" result="effect1_innerShadow_22_127"/>
<feColorMatrix in="SourceAlpha" type="matrix" values="0 0 0 0 0 0 0 0 0 0 0 0 0 0 0 0 0 0 127 0" result="hardAlpha"/>
<feOffset dy="1.87413"/>
<feGaussianBlur stdDeviation="0.937066"/>
<feComposite in2="hardAlpha" operator="arithmetic" k2="-1" k3="1"/>
<feColorMatrix type="matrix" values="0 0 0 0 0 0 0 0 0 0 0 0 0 0 0 0 0 0 0.14 0"/>
<feBlend mode="normal" in2="effect1_innerShadow_22_127" result="effect2_innerShadow_22_127"/>
</filter>
<filter id="filter8_ii_22_127" x="81.0058" y="55.4379" width="85.7489" height="33.9344" filterUnits="userSpaceOnUse" color-interpolation-filters="sRGB">
<feFlood flood-opacity="0" result="BackgroundImageFix"/>
<feBlend mode="normal" in="SourceGraphic" in2="BackgroundImageFix" result="shape"/>
<feColorMatrix in="SourceAlpha" type="matrix" values="0 0 0 0 0 0 0 0 0 0 0 0 0 0 0 0 0 0 127 0" result="hardAlpha"/>
<feOffset dx="1.87413" dy="-1.87413"/>
<feGaussianBlur stdDeviation="2.34267"/>
<feComposite in2="hardAlpha" operator="arithmetic" k2="-1" k3="1"/>
<feColorMatrix type="matrix" values="0 0 0 0 1 0 0 0 0 1 0 0 0 0 1 0 0 0 0.38 0"/>
<feBlend mode="normal" in2="shape" result="effect1_innerShadow_22_127"/>
<feColorMatrix in="SourceAlpha" type="matrix" values="0 0 0 0 0 0 0 0 0 0 0 0 0 0 0 0 0 0 127 0" result="hardAlpha"/>
<feOffset dx="-1.87413" dy="1.87413"/>
<feGaussianBlur stdDeviation="2.34267"/>
<feComposite in2="hardAlpha" operator="arithmetic" k2="-1" k3="1"/>
<feColorMatrix type="matrix" values="0 0 0 0 1 0 0 0 0 1 0 0 0 0 1 0 0 0 0.25 0"/>
<feBlend mode="normal" in2="effect1_innerShadow_22_127" result="effect2_innerShadow_22_127"/>
</filter>
</defs>
</svg>
